<svg width="212" height="87" viewBox="0 0 212 87" fill="none" xmlns="http://www.w3.org/2000/svg">
<rect width="212" height="78" rx="12" fill="#C2F5FF"/>
<path d="M14 87L14 73L34 73L14 87Z" fill="#C2F5FF"/>
<path d="M40.9641 20.9091H42.5238V31.2131H42.6516L49.8107 20.9091H51.3448V34H49.7596V23.7216H49.6317L42.4982 34H40.9641V20.9091ZM60.372 24.1818V25.5881H55.8208V34H54.3123V24.1818H60.372ZM62.574 37.6818V24.1818H64.0314V25.7415H64.2104C64.3212 25.571 64.4746 25.3537 64.6706 25.0895C64.8709 24.821 65.1564 24.5824 65.5272 24.3736C65.9022 24.1605 66.4093 24.054 67.0485 24.054C67.8752 24.054 68.6039 24.2607 69.2346 24.674C69.8652 25.0874 70.3574 25.6733 70.7111 26.4318C71.0648 27.1903 71.2417 28.0852 71.2417 29.1165C71.2417 30.1562 71.0648 31.0575 70.7111 31.8203C70.3574 32.5788 69.8674 33.1669 69.2409 33.5845C68.6145 33.9979 67.8922 34.2045 67.074 34.2045C66.4434 34.2045 65.9384 34.1001 65.5591 33.8913C65.1799 33.6783 64.888 33.4375 64.6834 33.169C64.4789 32.8963 64.3212 32.6705 64.2104 32.4915H64.0826V37.6818H62.574ZM64.057 29.0909C64.057 29.8324 64.1657 30.4865 64.383 31.0533C64.6003 31.6158 64.9178 32.0568 65.3354 32.3764C65.753 32.6918 66.2644 32.8494 66.8695 32.8494C67.5002 32.8494 68.0265 32.6832 68.4483 32.3509C68.8745 32.0142 69.1941 31.5625 69.4071 30.9957C69.6245 30.4247 69.7331 29.7898 69.7331 29.0909C69.7331 28.4006 69.6266 27.7784 69.4135 27.2244C69.2047 26.6662 68.8873 26.2251 68.4611 25.9013C68.0392 25.5732 67.5087 25.4091 66.8695 25.4091C66.2559 25.4091 65.7402 25.5646 65.3226 25.8757C64.905 26.1825 64.5897 26.6129 64.3766 27.1669C64.1635 27.7166 64.057 28.358 64.057 29.0909ZM76.432 34.2301C75.8098 34.2301 75.2452 34.1129 74.7381 33.8786C74.231 33.6399 73.8283 33.2969 73.53 32.8494C73.2317 32.3977 73.0826 31.8523 73.0826 31.2131C73.0826 30.6506 73.1934 30.1946 73.415 29.8452C73.6365 29.4915 73.9327 29.2145 74.3034 29.0142C74.6742 28.8139 75.0833 28.6648 75.5307 28.5668C75.9824 28.4645 76.4363 28.3835 76.8922 28.3239C77.4888 28.2472 77.9725 28.1896 78.3432 28.1513C78.7182 28.1087 78.9909 28.0384 79.1614 27.9403C79.3361 27.8423 79.4235 27.6719 79.4235 27.429V27.3778C79.4235 26.7472 79.2509 26.2571 78.9057 25.9077C78.5648 25.5582 78.0471 25.3835 77.3525 25.3835C76.6323 25.3835 76.0676 25.5412 75.6586 25.8565C75.2495 26.1719 74.9618 26.5085 74.7956 26.8665L73.3638 26.3551C73.6195 25.7585 73.9604 25.294 74.3865 24.9616C74.8169 24.625 75.2857 24.3906 75.7928 24.2585C76.3042 24.1222 76.807 24.054 77.3013 24.054C77.6167 24.054 77.9789 24.0923 78.388 24.169C78.8013 24.2415 79.1998 24.3928 79.5833 24.6229C79.9711 24.853 80.2928 25.2003 80.5485 25.6648C80.8042 26.1293 80.932 26.7514 80.932 27.5312V34H79.4235V32.6705H79.3468C79.2445 32.8835 79.074 33.1115 78.8354 33.3544C78.5968 33.5973 78.2793 33.804 77.883 33.9744C77.4867 34.1449 77.003 34.2301 76.432 34.2301ZM76.6621 32.875C77.2587 32.875 77.7615 32.7578 78.1706 32.5234C78.584 32.2891 78.8951 31.9865 79.1039 31.6158C79.3169 31.245 79.4235 30.8551 79.4235 30.446V29.0653C79.3596 29.142 79.2189 29.2124 79.0016 29.2763C78.7885 29.3359 78.5414 29.3892 78.2601 29.4361C77.9831 29.4787 77.7125 29.517 77.4483 29.5511C77.1884 29.581 76.9775 29.6065 76.8155 29.6278C76.4235 29.679 76.057 29.7621 75.7161 29.8771C75.3794 29.9879 75.1067 30.1562 74.8979 30.3821C74.6934 30.6037 74.5911 30.9062 74.5911 31.2898C74.5911 31.8139 74.785 32.2102 75.1728 32.4787C75.5648 32.7429 76.0613 32.875 76.6621 32.875ZM88.7479 34V24.1818H96.4695V34H94.9609V25.5881H90.2564V34H88.7479ZM99.2244 37.6818V24.1818H100.682V25.7415H100.861C100.972 25.571 101.125 25.3537 101.321 25.0895C101.521 24.821 101.807 24.5824 102.178 24.3736C102.553 24.1605 103.06 24.054 103.699 24.054C104.526 24.054 105.254 24.2607 105.885 24.674C106.516 25.0874 107.008 25.6733 107.362 26.4318C107.715 27.1903 107.892 28.0852 107.892 29.1165C107.892 30.1562 107.715 31.0575 107.362 31.8203C107.008 32.5788 106.518 33.1669 105.891 33.5845C105.265 33.9979 104.543 34.2045 103.724 34.2045C103.094 34.2045 102.589 34.1001 102.21 33.8913C101.83 33.6783 101.538 33.4375 101.334 33.169C101.129 32.8963 100.972 32.6705 100.861 32.4915H100.733V37.6818H99.2244ZM100.707 29.0909C100.707 29.8324 100.816 30.4865 101.033 31.0533C101.251 31.6158 101.568 32.0568 101.986 32.3764C102.403 32.6918 102.915 32.8494 103.52 32.8494C104.151 32.8494 104.677 32.6832 105.099 32.3509C105.525 32.0142 105.844 31.5625 106.058 30.9957C106.275 30.4247 106.384 29.7898 106.384 29.0909C106.384 28.4006 106.277 27.7784 106.064 27.2244C105.855 26.6662 105.538 26.2251 105.112 25.9013C104.69 25.5732 104.159 25.4091 103.52 25.4091C102.906 25.4091 102.391 25.5646 101.973 25.8757C101.555 26.1825 101.24 26.6129 101.027 27.1669C100.814 27.7166 100.707 28.358 100.707 29.0909ZM114.182 34.2045C113.295 34.2045 112.518 33.9936 111.849 33.5717C111.184 33.1499 110.664 32.5597 110.289 31.8011C109.918 31.0426 109.733 30.1562 109.733 29.142C109.733 28.1193 109.918 27.2266 110.289 26.4638C110.664 25.701 111.184 25.1087 111.849 24.6868C112.518 24.2649 113.295 24.054 114.182 24.054C115.068 24.054 115.844 24.2649 116.509 24.6868C117.178 25.1087 117.697 25.701 118.068 26.4638C118.443 27.2266 118.631 28.1193 118.631 29.142C118.631 30.1562 118.443 31.0426 118.068 31.8011C117.697 32.5597 117.178 33.1499 116.509 33.5717C115.844 33.9936 115.068 34.2045 114.182 34.2045ZM114.182 32.8494C114.855 32.8494 115.409 32.6768 115.844 32.3317C116.278 31.9865 116.6 31.5327 116.809 30.9702C117.018 30.4077 117.122 29.7983 117.122 29.142C117.122 28.4858 117.018 27.8743 116.809 27.3075C116.6 26.7408 116.278 26.2827 115.844 25.9332C115.409 25.5838 114.855 25.4091 114.182 25.4091C113.509 25.4091 112.955 25.5838 112.52 25.9332C112.085 26.2827 111.763 26.7408 111.555 27.3075C111.346 27.8743 111.241 28.4858 111.241 29.142C111.241 29.7983 111.346 30.4077 111.555 30.9702C111.763 31.5327 112.085 31.9865 112.52 32.3317C112.955 32.6768 113.509 32.8494 114.182 32.8494ZM122.442 31.7756L127.172 24.1818H128.911V34H127.402V26.4062L122.698 34H120.933V24.1818H122.442V31.7756ZM126.175 20.9091H127.581C127.581 21.5994 127.343 22.1641 126.865 22.603C126.388 23.0419 125.74 23.2614 124.922 23.2614C124.117 23.2614 123.475 23.0419 122.998 22.603C122.525 22.1641 122.289 21.5994 122.289 20.9091H123.695C123.695 21.2415 123.786 21.5334 123.97 21.7848C124.157 22.0362 124.475 22.1619 124.922 22.1619C125.369 22.1619 125.689 22.0362 125.881 21.7848C126.077 21.5334 126.175 21.2415 126.175 20.9091ZM130.625 36.8125V32.5938H131.444C131.644 32.3849 131.816 32.1591 131.961 31.9162C132.106 31.6733 132.232 31.3857 132.338 31.0533C132.449 30.7166 132.543 30.3075 132.62 29.826C132.696 29.3402 132.765 28.7543 132.824 28.0682L133.157 24.1818H139.395V32.5938H140.904V36.8125H139.395V34H132.134V36.8125H130.625ZM133.157 32.5938H137.887V25.5881H134.563L134.307 28.0682C134.201 29.0952 134.069 29.9922 133.911 30.7592C133.753 31.5263 133.502 32.1378 133.157 32.5938ZM147.023 34.2045C146.077 34.2045 145.26 33.9957 144.574 33.5781C143.893 33.1562 143.366 32.5682 142.996 31.8139C142.629 31.0554 142.446 30.1733 142.446 29.1676C142.446 28.1619 142.629 27.2756 142.996 26.5085C143.366 25.7372 143.882 25.1364 144.542 24.706C145.207 24.2713 145.983 24.054 146.869 24.054C147.381 24.054 147.885 24.1392 148.384 24.3097C148.883 24.4801 149.336 24.7571 149.746 25.1406C150.155 25.5199 150.481 26.0227 150.724 26.6491C150.966 27.2756 151.088 28.0469 151.088 28.9631V29.6023H143.52V28.2983H149.554C149.554 27.7443 149.443 27.25 149.221 26.8153C149.004 26.3807 148.693 26.0376 148.288 25.7862C147.888 25.5348 147.415 25.4091 146.869 25.4091C146.268 25.4091 145.748 25.5582 145.309 25.8565C144.875 26.1506 144.54 26.5341 144.306 27.0071C144.072 27.4801 143.954 27.9872 143.954 28.5284V29.3977C143.954 30.1392 144.082 30.7678 144.338 31.2834C144.598 31.7947 144.958 32.1847 145.418 32.4531C145.878 32.7173 146.413 32.8494 147.023 32.8494C147.419 32.8494 147.777 32.794 148.096 32.6832C148.42 32.5682 148.699 32.3977 148.934 32.1719C149.168 31.9418 149.349 31.6562 149.477 31.3153L150.934 31.7244C150.781 32.2188 150.523 32.6534 150.161 33.0284C149.799 33.3991 149.351 33.6889 148.819 33.8977C148.286 34.1023 147.687 34.2045 147.023 34.2045ZM159.954 28.4006V29.8068H154.533V28.4006H159.954ZM154.891 24.1818V34H153.383V24.1818H154.891ZM161.104 24.1818V34H159.596V24.1818H161.104ZM166.748 34.2301C166.126 34.2301 165.562 34.1129 165.055 33.8786C164.547 33.6399 164.145 33.2969 163.846 32.8494C163.548 32.3977 163.399 31.8523 163.399 31.2131C163.399 30.6506 163.51 30.1946 163.731 29.8452C163.953 29.4915 164.249 29.2145 164.62 29.0142C164.991 28.8139 165.4 28.6648 165.847 28.5668C166.299 28.4645 166.753 28.3835 167.209 28.3239C167.805 28.2472 168.289 28.1896 168.66 28.1513C169.035 28.1087 169.307 28.0384 169.478 27.9403C169.653 27.8423 169.74 27.6719 169.74 27.429V27.3778C169.74 26.7472 169.567 26.2571 169.222 25.9077C168.881 25.5582 168.363 25.3835 167.669 25.3835C166.949 25.3835 166.384 25.5412 165.975 25.8565C165.566 26.1719 165.278 26.5085 165.112 26.8665L163.68 26.3551C163.936 25.7585 164.277 25.294 164.703 24.9616C165.133 24.625 165.602 24.3906 166.109 24.2585C166.621 24.1222 167.123 24.054 167.618 24.054C167.933 24.054 168.295 24.0923 168.704 24.169C169.118 24.2415 169.516 24.3928 169.9 24.6229C170.287 24.853 170.609 25.2003 170.865 25.6648C171.121 26.1293 171.248 26.7514 171.248 27.5312V34H169.74V32.6705H169.663C169.561 32.8835 169.39 33.1115 169.152 33.3544C168.913 33.5973 168.596 33.804 168.199 33.9744C167.803 34.1449 167.319 34.2301 166.748 34.2301ZM166.979 32.875C167.575 32.875 168.078 32.7578 168.487 32.5234C168.9 32.2891 169.211 31.9865 169.42 31.6158C169.633 31.245 169.74 30.8551 169.74 30.446V29.0653C169.676 29.142 169.535 29.2124 169.318 29.2763C169.105 29.3359 168.858 29.3892 168.577 29.4361C168.3 29.4787 168.029 29.517 167.765 29.5511C167.505 29.581 167.294 29.6065 167.132 29.6278C166.74 29.679 166.373 29.7621 166.032 29.8771C165.696 29.9879 165.423 30.1562 165.214 30.3821C165.01 30.6037 164.907 30.9062 164.907 31.2898C164.907 31.8139 165.101 32.2102 165.489 32.4787C165.881 32.7429 166.378 32.875 166.979 32.875ZM21.5643 58V48.1818H25.5785C26.6353 48.1818 27.4748 48.4205 28.0969 48.8977C28.7191 49.375 29.0302 50.0057 29.0302 50.7898C29.0302 51.3864 28.8533 51.8487 28.4996 52.1768C28.146 52.5007 27.6921 52.7202 27.1381 52.8352C27.5004 52.8864 27.8519 53.0142 28.1928 53.2188C28.538 53.4233 28.8235 53.7045 29.0494 54.0625C29.2752 54.4162 29.3881 54.8509 29.3881 55.3665C29.3881 55.8693 29.2603 56.3189 29.0046 56.7152C28.7489 57.1115 28.3825 57.4247 27.9052 57.6548C27.4279 57.8849 26.8569 58 26.1921 58H21.5643ZM22.9961 56.6193H26.1921C26.712 56.6193 27.119 56.4957 27.413 56.2486C27.707 56.0014 27.854 55.6648 27.854 55.2386C27.854 54.7315 27.707 54.3331 27.413 54.0433C27.119 53.7493 26.712 53.6023 26.1921 53.6023H22.9961V56.6193ZM22.9961 52.2983H25.5785C25.9833 52.2983 26.3306 52.2429 26.6204 52.1321C26.9102 52.017 27.1317 51.8551 27.2852 51.6463C27.4428 51.4332 27.5217 51.1818 27.5217 50.892C27.5217 50.4787 27.3491 50.1548 27.0039 49.9205C26.6587 49.6818 26.1836 49.5625 25.5785 49.5625H22.9961V52.2983ZM40.7228 58.2045C39.8024 58.2045 39.0098 57.9872 38.345 57.5526C37.6802 57.1179 37.1689 56.5192 36.8109 55.7564C36.4529 54.9936 36.274 54.1222 36.274 53.142C36.274 52.1449 36.4572 51.2649 36.8237 50.5021C37.1944 49.7351 37.71 49.1364 38.3706 48.706C39.0353 48.2713 39.8109 48.054 40.6973 48.054C41.3876 48.054 42.0098 48.1818 42.5637 48.4375C43.1177 48.6932 43.5716 49.0511 43.9252 49.5114C44.2789 49.9716 44.4984 50.5085 44.5836 51.1222H43.0751C42.96 50.6747 42.7044 50.2784 42.3081 49.9332C41.916 49.5838 41.3876 49.4091 40.7228 49.4091C40.1348 49.4091 39.6191 49.5625 39.176 49.8693C38.737 50.1719 38.394 50.6001 38.1468 51.1541C37.9039 51.7038 37.7825 52.3494 37.7825 53.0909C37.7825 53.8494 37.9018 54.5099 38.1404 55.0724C38.3833 55.6349 38.7243 56.0717 39.1632 56.3828C39.6064 56.6939 40.1262 56.8494 40.7228 56.8494C41.1149 56.8494 41.4707 56.7812 41.7903 56.6449C42.1099 56.5085 42.3805 56.3125 42.6021 56.0568C42.8237 55.8011 42.9814 55.4943 43.0751 55.1364H44.5836C44.4984 55.7159 44.2875 56.2379 43.9508 56.7024C43.6184 57.1626 43.1774 57.5291 42.6277 57.8018C42.0822 58.0703 41.4473 58.2045 40.7228 58.2045ZM45.9196 58V56.5938H46.2775C46.5716 56.5938 46.8166 56.5362 47.0126 56.4212C47.2086 56.3018 47.3663 56.0952 47.4856 55.8011C47.6092 55.5028 47.7029 55.0895 47.7669 54.5611C47.835 54.0284 47.8841 53.3509 47.9139 52.5284L48.0929 48.1818H54.6383V58H53.1298V49.5881H49.5247L49.3713 53.0909C49.3372 53.8963 49.2647 54.6058 49.1539 55.2195C49.0474 55.8288 48.8833 56.3402 48.6618 56.7536C48.4444 57.1669 48.1547 57.478 47.7924 57.6868C47.4302 57.8956 46.9764 58 46.4309 58H45.9196ZM61.3947 58.2045C60.5083 58.2045 59.7306 57.9936 59.0616 57.5717C58.3968 57.1499 57.877 56.5597 57.502 55.8011C57.1312 55.0426 56.9458 54.1562 56.9458 53.142C56.9458 52.1193 57.1312 51.2266 57.502 50.4638C57.877 49.701 58.3968 49.1087 59.0616 48.6868C59.7306 48.2649 60.5083 48.054 61.3947 48.054C62.2811 48.054 63.0566 48.2649 63.7214 48.6868C64.3904 49.1087 64.9103 49.701 65.2811 50.4638C65.6561 51.2266 65.8436 52.1193 65.8436 53.142C65.8436 54.1562 65.6561 55.0426 65.2811 55.8011C64.9103 56.5597 64.3904 57.1499 63.7214 57.5717C63.0566 57.9936 62.2811 58.2045 61.3947 58.2045ZM61.3947 56.8494C62.068 56.8494 62.622 56.6768 63.0566 56.3317C63.4913 55.9865 63.813 55.5327 64.0218 54.9702C64.2306 54.4077 64.3351 53.7983 64.3351 53.142C64.3351 52.4858 64.2306 51.8743 64.0218 51.3075C63.813 50.7408 63.4913 50.2827 63.0566 49.9332C62.622 49.5838 62.068 49.4091 61.3947 49.4091C60.7214 49.4091 60.1674 49.5838 59.7328 49.9332C59.2981 50.2827 58.9764 50.7408 58.7676 51.3075C58.5588 51.8743 58.4544 52.4858 58.4544 53.142C58.4544 53.7983 58.5588 54.4077 58.7676 54.9702C58.9764 55.5327 59.2981 55.9865 59.7328 56.3317C60.1674 56.6768 60.7214 56.8494 61.3947 56.8494ZM67.1284 58L71.117 53.0142L67.1795 48.1818H68.9693L72.242 52.375H73.0602V48.1818H74.5687V52.375H75.3613L78.6341 48.1818H80.4238L76.5119 53.0142L80.475 58H78.6596L75.3358 53.7812H74.5687V58H73.0602V53.7812H72.2931L68.9437 58H67.1284ZM89.2017 52.4006V53.8068H83.7812V52.4006H89.2017ZM84.1392 48.1818V58H82.6307V48.1818H84.1392ZM90.3523 48.1818V58H88.8438V48.1818H90.3523ZM97.0959 58.2045C96.2095 58.2045 95.4318 57.9936 94.7628 57.5717C94.098 57.1499 93.5781 56.5597 93.2031 55.8011C92.8324 55.0426 92.647 54.1562 92.647 53.142C92.647 52.1193 92.8324 51.2266 93.2031 50.4638C93.5781 49.701 94.098 49.1087 94.7628 48.6868C95.4318 48.2649 96.2095 48.054 97.0959 48.054C97.9822 48.054 98.7578 48.2649 99.4226 48.6868C100.092 49.1087 100.612 49.701 100.982 50.4638C101.357 51.2266 101.545 52.1193 101.545 53.142C101.545 54.1562 101.357 55.0426 100.982 55.8011C100.612 56.5597 100.092 57.1499 99.4226 57.5717C98.7578 57.9936 97.9822 58.2045 97.0959 58.2045ZM97.0959 56.8494C97.7692 56.8494 98.3232 56.6768 98.7578 56.3317C99.1925 55.9865 99.5142 55.5327 99.723 54.9702C99.9318 54.4077 100.036 53.7983 100.036 53.142C100.036 52.4858 99.9318 51.8743 99.723 51.3075C99.5142 50.7408 99.1925 50.2827 98.7578 49.9332C98.3232 49.5838 97.7692 49.4091 97.0959 49.4091C96.4226 49.4091 95.8686 49.5838 95.4339 49.9332C94.9993 50.2827 94.6776 50.7408 94.4688 51.3075C94.2599 51.8743 94.1555 52.4858 94.1555 53.142C94.1555 53.7983 94.2599 54.4077 94.4688 54.9702C94.6776 55.5327 94.9993 55.9865 95.4339 56.3317C95.8686 56.6768 96.4226 56.8494 97.0959 56.8494ZM109.217 55.9545L112.643 48.1818H114.075L109.83 58H108.603L104.436 48.1818H105.842L109.217 55.9545ZM105.356 48.1818V58H103.847V48.1818H105.356ZM113.078 58V48.1818H114.586V58H113.078ZM122.41 61.6818V48.1818H123.867V49.7415H124.046C124.157 49.571 124.311 49.3537 124.507 49.0895C124.707 48.821 124.992 48.5824 125.363 48.3736C125.738 48.1605 126.245 48.054 126.884 48.054C127.711 48.054 128.44 48.2607 129.07 48.674C129.701 49.0874 130.193 49.6733 130.547 50.4318C130.901 51.1903 131.078 52.0852 131.078 53.1165C131.078 54.1562 130.901 55.0575 130.547 55.8203C130.193 56.5788 129.703 57.1669 129.077 57.5845C128.45 57.9979 127.728 58.2045 126.91 58.2045C126.279 58.2045 125.774 58.1001 125.395 57.8913C125.016 57.6783 124.724 57.4375 124.519 57.169C124.315 56.8963 124.157 56.6705 124.046 56.4915H123.919V61.6818H122.41ZM123.893 53.0909C123.893 53.8324 124.002 54.4865 124.219 55.0533C124.436 55.6158 124.754 56.0568 125.171 56.3764C125.589 56.6918 126.1 56.8494 126.705 56.8494C127.336 56.8494 127.862 56.6832 128.284 56.3509C128.71 56.0142 129.03 55.5625 129.243 54.9957C129.46 54.4247 129.569 53.7898 129.569 53.0909C129.569 52.4006 129.463 51.7784 129.249 51.2244C129.041 50.6662 128.723 50.2251 128.297 49.9013C127.875 49.5732 127.345 49.4091 126.705 49.4091C126.092 49.4091 125.576 49.5646 125.159 49.8757C124.741 50.1825 124.426 50.6129 124.213 51.1669C123.999 51.7166 123.893 52.358 123.893 53.0909ZM137.495 58.2045C136.549 58.2045 135.733 57.9957 135.047 57.5781C134.365 57.1562 133.839 56.5682 133.468 55.8139C133.102 55.0554 132.919 54.1733 132.919 53.1676C132.919 52.1619 133.102 51.2756 133.468 50.5085C133.839 49.7372 134.355 49.1364 135.015 48.706C135.68 48.2713 136.455 48.054 137.342 48.054C137.853 48.054 138.358 48.1392 138.857 48.3097C139.355 48.4801 139.809 48.7571 140.218 49.1406C140.627 49.5199 140.953 50.0227 141.196 50.6491C141.439 51.2756 141.561 52.0469 141.561 52.9631V53.6023H133.992V52.2983H140.026C140.026 51.7443 139.916 51.25 139.694 50.8153C139.477 50.3807 139.166 50.0376 138.761 49.7862C138.36 49.5348 137.887 49.4091 137.342 49.4091C136.741 49.4091 136.221 49.5582 135.782 49.8565C135.347 50.1506 135.013 50.5341 134.779 51.0071C134.544 51.4801 134.427 51.9872 134.427 52.5284V53.3977C134.427 54.1392 134.555 54.7678 134.811 55.2834C135.07 55.7947 135.431 56.1847 135.891 56.4531C136.351 56.7173 136.886 56.8494 137.495 56.8494C137.892 56.8494 138.249 56.794 138.569 56.6832C138.893 56.5682 139.172 56.3977 139.406 56.1719C139.641 55.9418 139.822 55.6562 139.95 55.3153L141.407 55.7244C141.254 56.2188 140.996 56.6534 140.634 57.0284C140.271 57.3991 139.824 57.6889 139.291 57.8977C138.759 58.1023 138.16 58.2045 137.495 58.2045ZM142.978 58L146.967 53.0142L143.029 48.1818H144.819L148.092 52.375H148.91V48.1818H150.418V52.375H151.211L154.484 48.1818H156.273L152.362 53.0142L156.325 58H154.509L151.185 53.7812H150.418V58H148.91V53.7812H148.143L144.793 58H142.978ZM159.989 55.7756L164.719 48.1818H166.458V58H164.949V50.4062L160.244 58H158.48V48.1818H159.989V55.7756ZM174.59 55.9545L178.016 48.1818H179.448L175.203 58H173.976L169.809 48.1818H171.215L174.59 55.9545ZM170.729 48.1818V58H169.221V48.1818H170.729ZM178.451 58V48.1818H179.959V58H178.451ZM186.837 58.2045C185.891 58.2045 185.075 57.9957 184.389 57.5781C183.707 57.1562 183.181 56.5682 182.81 55.8139C182.444 55.0554 182.26 54.1733 182.26 53.1676C182.26 52.1619 182.444 51.2756 182.81 50.5085C183.181 49.7372 183.696 49.1364 184.357 48.706C185.022 48.2713 185.797 48.054 186.684 48.054C187.195 48.054 187.7 48.1392 188.199 48.3097C188.697 48.4801 189.151 48.7571 189.56 49.1406C189.969 49.5199 190.295 50.0227 190.538 50.6491C190.781 51.2756 190.902 52.0469 190.902 52.9631V53.6023H183.334V52.2983H189.368C189.368 51.7443 189.257 51.25 189.036 50.8153C188.819 50.3807 188.507 50.0376 188.103 49.7862C187.702 49.5348 187.229 49.4091 186.684 49.4091C186.083 49.4091 185.563 49.5582 185.124 49.8565C184.689 50.1506 184.355 50.5341 184.12 51.0071C183.886 51.4801 183.769 51.9872 183.769 52.5284V53.3977C183.769 54.1392 183.897 54.7678 184.152 55.2834C184.412 55.7947 184.772 56.1847 185.233 56.4531C185.693 56.7173 186.228 56.8494 186.837 56.8494C187.233 56.8494 187.591 56.794 187.911 56.6832C188.235 56.5682 188.514 56.3977 188.748 56.1719C188.983 55.9418 189.164 55.6562 189.292 55.3153L190.749 55.7244C190.596 56.2188 190.338 56.6534 189.975 57.0284C189.613 57.3991 189.166 57.6889 188.633 57.8977C188.1 58.1023 187.502 58.2045 186.837 58.2045Z" fill="#004980"/>
</svg>
