<svg width="222" height="223" viewBox="0 0 222 223" fill="none" xmlns="http://www.w3.org/2000/svg">
<rect width="222" height="223" rx="12" transform="matrix(1 0 0 -1 0 223)" fill="#C2F5FF"/>
<path d="M73.6511 30.9091V44H70.9153V33.1591H65.6227V44H62.8869V30.9091H73.6511ZM76.2351 47.6818V34.1818H78.9197V35.831H79.0412C79.1605 35.5668 79.3331 35.2983 79.5589 35.0256C79.7891 34.7486 80.0874 34.5185 80.4538 34.3352C80.8246 34.1477 81.2848 34.054 81.8345 34.054C82.5504 34.054 83.2109 34.2415 83.8161 34.6165C84.4212 34.9872 84.9048 35.5476 85.267 36.2976C85.6293 37.0433 85.8104 37.9787 85.8104 39.1037C85.8104 40.1989 85.6335 41.1236 85.2798 41.8778C84.9304 42.6278 84.4531 43.1967 83.848 43.5845C83.2472 43.968 82.5739 44.1598 81.8281 44.1598C81.2997 44.1598 80.8501 44.0724 80.4794 43.8977C80.1129 43.723 79.8125 43.5036 79.5781 43.2393C79.3438 42.9709 79.1648 42.7003 79.0412 42.4276H78.9581V47.6818H76.2351ZM78.9006 39.0909C78.9006 39.6747 78.9815 40.1839 79.1435 40.6186C79.3054 41.0533 79.5398 41.392 79.8466 41.6349C80.1534 41.8736 80.5263 41.9929 80.9652 41.9929C81.4084 41.9929 81.7834 41.8714 82.0902 41.6286C82.397 41.3814 82.6293 41.0405 82.7869 40.6058C82.9489 40.1669 83.0298 39.6619 83.0298 39.0909C83.0298 38.5241 82.951 38.0256 82.7933 37.5952C82.6357 37.1648 82.4034 36.8281 82.0966 36.5852C81.7898 36.3423 81.4126 36.2209 80.9652 36.2209C80.522 36.2209 80.147 36.3381 79.8402 36.5724C79.5376 36.8068 79.3054 37.1392 79.1435 37.5696C78.9815 38 78.9006 38.5071 78.9006 39.0909ZM92.0618 44.1918C91.0689 44.1918 90.2102 43.9808 89.4858 43.5589C88.7656 43.1328 88.2095 42.5405 87.8175 41.782C87.4254 41.0192 87.2294 40.1349 87.2294 39.1293C87.2294 38.1151 87.4254 37.2287 87.8175 36.4702C88.2095 35.7074 88.7656 35.1151 89.4858 34.6932C90.2102 34.267 91.0689 34.054 92.0618 34.054C93.0547 34.054 93.9112 34.267 94.6314 34.6932C95.3558 35.1151 95.9141 35.7074 96.3061 36.4702C96.6982 37.2287 96.8942 38.1151 96.8942 39.1293C96.8942 40.1349 96.6982 41.0192 96.3061 41.782C95.9141 42.5405 95.3558 43.1328 94.6314 43.5589C93.9112 43.9808 93.0547 44.1918 92.0618 44.1918ZM92.0746 42.0824C92.5263 42.0824 92.9034 41.9545 93.206 41.6989C93.5085 41.4389 93.7365 41.0852 93.8899 40.6378C94.0476 40.1903 94.1264 39.6811 94.1264 39.1101C94.1264 38.5391 94.0476 38.0298 93.8899 37.5824C93.7365 37.1349 93.5085 36.7812 93.206 36.5213C92.9034 36.2614 92.5263 36.1314 92.0746 36.1314C91.6186 36.1314 91.2351 36.2614 90.924 36.5213C90.6172 36.7812 90.3849 37.1349 90.2273 37.5824C90.0739 38.0298 89.9972 38.5391 89.9972 39.1101C89.9972 39.6811 90.0739 40.1903 90.2273 40.6378C90.3849 41.0852 90.6172 41.4389 90.924 41.6989C91.2351 41.9545 91.6186 42.0824 92.0746 42.0824ZM98.1598 41.2195H100.8C100.813 41.5433 100.957 41.799 101.234 41.9865C101.511 42.174 101.869 42.2678 102.308 42.2678C102.751 42.2678 103.124 42.1655 103.427 41.9609C103.729 41.7521 103.881 41.4538 103.881 41.0661C103.881 40.8274 103.821 40.6207 103.702 40.446C103.582 40.267 103.416 40.1264 103.203 40.0241C102.99 39.9219 102.743 39.8707 102.462 39.8707H101.049V38.0874H102.462C102.884 38.0874 103.207 37.9893 103.433 37.7933C103.663 37.5973 103.778 37.3523 103.778 37.0582C103.778 36.7259 103.659 36.4595 103.42 36.2592C103.186 36.0547 102.869 35.9524 102.468 35.9524C102.063 35.9524 101.727 36.044 101.458 36.2273C101.194 36.4062 101.058 36.6406 101.049 36.9304H98.4219C98.4304 36.3423 98.6072 35.8331 98.9524 35.4027C99.3018 34.9723 99.7706 34.6399 100.359 34.4055C100.951 34.1712 101.614 34.054 102.347 34.054C103.148 34.054 103.838 34.1669 104.418 34.3928C105.001 34.6143 105.449 34.9318 105.76 35.3452C106.075 35.7585 106.233 36.2507 106.233 36.8217C106.233 37.3416 106.063 37.7763 105.722 38.1257C105.381 38.4751 104.903 38.7244 104.29 38.8736V38.9759C104.695 39.0014 105.061 39.1101 105.389 39.3018C105.717 39.4936 105.979 39.7578 106.175 40.0945C106.371 40.4268 106.469 40.821 106.469 41.277C106.469 41.8864 106.29 42.4084 105.933 42.843C105.579 43.2777 105.089 43.6122 104.462 43.8466C103.84 44.0767 103.126 44.1918 102.321 44.1918C101.537 44.1918 100.834 44.0788 100.212 43.853C99.5938 43.6229 99.1016 43.2862 98.7351 42.843C98.3729 42.3999 98.1811 41.8587 98.1598 41.2195ZM108.139 47.6818V34.1818H110.824V35.831H110.945C111.065 35.5668 111.237 35.2983 111.463 35.0256C111.693 34.7486 111.992 34.5185 112.358 34.3352C112.729 34.1477 113.189 34.054 113.739 34.054C114.455 34.054 115.115 34.2415 115.72 34.6165C116.325 34.9872 116.809 35.5476 117.171 36.2976C117.534 37.0433 117.715 37.9787 117.715 39.1037C117.715 40.1989 117.538 41.1236 117.184 41.8778C116.835 42.6278 116.357 43.1967 115.752 43.5845C115.151 43.968 114.478 44.1598 113.732 44.1598C113.204 44.1598 112.754 44.0724 112.384 43.8977C112.017 43.723 111.717 43.5036 111.482 43.2393C111.248 42.9709 111.069 42.7003 110.945 42.4276H110.862V47.6818H108.139ZM110.805 39.0909C110.805 39.6747 110.886 40.1839 111.048 40.6186C111.21 41.0533 111.444 41.392 111.751 41.6349C112.058 41.8736 112.431 41.9929 112.869 41.9929C113.313 41.9929 113.688 41.8714 113.994 41.6286C114.301 41.3814 114.534 41.0405 114.691 40.6058C114.853 40.1669 114.934 39.6619 114.934 39.0909C114.934 38.5241 114.855 38.0256 114.698 37.5952C114.54 37.1648 114.308 36.8281 114.001 36.5852C113.694 36.3423 113.317 36.2209 112.869 36.2209C112.426 36.2209 112.051 36.3381 111.744 36.5724C111.442 36.8068 111.21 37.1392 111.048 37.5696C110.886 38 110.805 38.5071 110.805 39.0909ZM124.004 44.1918C122.994 44.1918 122.125 43.9872 121.396 43.5781C120.672 43.1648 120.114 42.581 119.722 41.8267C119.33 41.0682 119.134 40.1712 119.134 39.1357C119.134 38.1257 119.33 37.2393 119.722 36.4766C120.114 35.7138 120.666 35.1193 121.377 34.6932C122.093 34.267 122.933 34.054 123.896 34.054C124.544 34.054 125.146 34.1584 125.705 34.3672C126.267 34.5717 126.757 34.8807 127.175 35.294C127.597 35.7074 127.925 36.2273 128.159 36.8537C128.394 37.4759 128.511 38.2045 128.511 39.0398V39.7876H120.22V38.1001H125.948C125.948 37.7081 125.862 37.3608 125.692 37.0582C125.521 36.7557 125.285 36.5192 124.982 36.3487C124.684 36.174 124.337 36.0866 123.941 36.0866C123.527 36.0866 123.161 36.1825 122.841 36.3743C122.526 36.5618 122.279 36.8153 122.1 37.1349C121.921 37.4503 121.829 37.8018 121.825 38.1896V39.794C121.825 40.2798 121.914 40.6996 122.093 41.0533C122.276 41.407 122.534 41.6797 122.867 41.8714C123.199 42.0632 123.593 42.1591 124.049 42.1591C124.352 42.1591 124.629 42.1165 124.88 42.0312C125.132 41.946 125.347 41.8182 125.526 41.6477C125.705 41.4773 125.841 41.2685 125.935 41.0213L128.453 41.1875C128.325 41.7926 128.063 42.321 127.667 42.7727C127.275 43.2202 126.768 43.5696 126.146 43.821C125.528 44.0682 124.814 44.1918 124.004 44.1918ZM137.121 38.0043V40.1456H131.994V38.0043H137.121ZM132.889 34.1818V44H130.288V34.1818H132.889ZM138.828 34.1818V44H136.245V34.1818H138.828ZM143.542 40.4077L147.077 34.1818H149.761V44H147.166V37.755L143.644 44H140.94V34.1818H143.542V40.4077ZM156.419 44.1918C155.409 44.1918 154.539 43.9872 153.811 43.5781C153.086 43.1648 152.528 42.581 152.136 41.8267C151.744 41.0682 151.548 40.1712 151.548 39.1357C151.548 38.1257 151.744 37.2393 152.136 36.4766C152.528 35.7138 153.08 35.1193 153.791 34.6932C154.507 34.267 155.347 34.054 156.31 34.054C156.958 34.054 157.561 34.1584 158.119 34.3672C158.681 34.5717 159.171 34.8807 159.589 35.294C160.011 35.7074 160.339 36.2273 160.573 36.8537C160.808 37.4759 160.925 38.2045 160.925 39.0398V39.7876H152.634V38.1001H158.362C158.362 37.7081 158.276 37.3608 158.106 37.0582C157.936 36.7557 157.699 36.5192 157.396 36.3487C157.098 36.174 156.751 36.0866 156.355 36.0866C155.941 36.0866 155.575 36.1825 155.255 36.3743C154.94 36.5618 154.693 36.8153 154.514 37.1349C154.335 37.4503 154.243 37.8018 154.239 38.1896V39.794C154.239 40.2798 154.328 40.6996 154.507 41.0533C154.691 41.407 154.948 41.6797 155.281 41.8714C155.613 42.0632 156.007 42.1591 156.463 42.1591C156.766 42.1591 157.043 42.1165 157.294 42.0312C157.546 41.946 157.761 41.8182 157.94 41.6477C158.119 41.4773 158.255 41.2685 158.349 41.0213L160.867 41.1875C160.74 41.7926 160.477 42.321 160.081 42.7727C159.689 43.2202 159.182 43.5696 158.56 43.821C157.942 44.0682 157.228 44.1918 156.419 44.1918Z" fill="#004980"/>
<path d="M59.3499 78V64.9091H60.9351V70.7386H67.9152V64.9091H69.5004V78H67.9152V72.1449H60.9351V78H59.3499ZM75.3588 78.2301C74.7366 78.2301 74.172 78.1129 73.6649 77.8786C73.1578 77.6399 72.7551 77.2969 72.4568 76.8494C72.1585 76.3977 72.0093 75.8523 72.0093 75.2131C72.0093 74.6506 72.1201 74.1946 72.3417 73.8452C72.5633 73.4915 72.8595 73.2145 73.2302 73.0142C73.6009 72.8139 74.01 72.6648 74.4575 72.5668C74.9092 72.4645 75.363 72.3835 75.819 72.3239C76.4156 72.2472 76.8992 72.1896 77.27 72.1513C77.645 72.1087 77.9177 72.0384 78.0882 71.9403C78.2629 71.8423 78.3502 71.6719 78.3502 71.429V71.3778C78.3502 70.7472 78.1776 70.2571 77.8325 69.9077C77.4916 69.5582 76.9738 69.3835 76.2792 69.3835C75.559 69.3835 74.9944 69.5412 74.5853 69.8565C74.1762 70.1719 73.8886 70.5085 73.7224 70.8665L72.2906 70.3551C72.5463 69.7585 72.8872 69.294 73.3133 68.9616C73.7437 68.625 74.2124 68.3906 74.7195 68.2585C75.2309 68.1222 75.7338 68.054 76.2281 68.054C76.5434 68.054 76.9056 68.0923 77.3147 68.169C77.7281 68.2415 78.1265 68.3928 78.51 68.6229C78.8978 68.853 79.2195 69.2003 79.4752 69.6648C79.7309 70.1293 79.8588 70.7514 79.8588 71.5312V78H78.3502V76.6705H78.2735C78.1713 76.8835 78.0008 77.1115 77.7622 77.3544C77.5235 77.5973 77.2061 77.804 76.8097 77.9744C76.4134 78.1449 75.9298 78.2301 75.3588 78.2301ZM75.5889 76.875C76.1855 76.875 76.6883 76.7578 77.0974 76.5234C77.5107 76.2891 77.8218 75.9865 78.0306 75.6158C78.2437 75.245 78.3502 74.8551 78.3502 74.446V73.0653C78.2863 73.142 78.1457 73.2124 77.9284 73.2763C77.7153 73.3359 77.4681 73.3892 77.1869 73.4361C76.9099 73.4787 76.6393 73.517 76.3751 73.5511C76.1151 73.581 75.9042 73.6065 75.7423 73.6278C75.3502 73.679 74.9838 73.7621 74.6428 73.8771C74.3062 73.9879 74.0335 74.1562 73.8247 74.3821C73.6201 74.6037 73.5178 74.9062 73.5178 75.2898C73.5178 75.8139 73.7117 76.2102 74.0995 76.4787C74.4916 76.7429 74.988 76.875 75.5889 76.875ZM91.74 78.179C90.99 78.179 90.3145 78.0298 89.7137 77.7315C89.1128 77.4332 88.6313 77.0241 88.2691 76.5043C87.9069 75.9844 87.7087 75.392 87.6746 74.7273H89.2087C89.2684 75.3196 89.5368 75.8097 90.0141 76.1974C90.4956 76.581 91.0709 76.7727 91.74 76.7727C92.2769 76.7727 92.7542 76.647 93.1718 76.3956C93.5937 76.1442 93.9239 75.799 94.1626 75.3601C94.4055 74.9169 94.5269 74.4162 94.5269 73.858C94.5269 73.2869 94.4012 72.7777 94.1498 72.3303C93.9026 71.8786 93.5617 71.5227 93.127 71.2628C92.6924 71.0028 92.1959 70.8707 91.6377 70.8665C91.2371 70.8622 90.8259 70.924 90.404 71.0518C89.9822 71.1754 89.6349 71.3352 89.3621 71.5312L87.8792 71.3523L88.6718 64.9091H95.4729V66.3153H90.0013L89.5411 70.1761H89.6178C89.8863 69.9631 90.2229 69.7862 90.6278 69.6456C91.0326 69.505 91.4545 69.4347 91.8934 69.4347C92.6945 69.4347 93.4083 69.6264 94.0347 70.0099C94.6654 70.3892 95.1597 70.9091 95.5177 71.5696C95.8799 72.2301 96.061 72.9844 96.061 73.8324C96.061 74.6676 95.8735 75.4134 95.4985 76.0696C95.1278 76.7216 94.6164 77.2372 93.9644 77.6165C93.3124 77.9915 92.5709 78.179 91.74 78.179ZM107.677 78.2045C106.756 78.2045 105.964 77.9872 105.299 77.5526C104.634 77.1179 104.123 76.5192 103.765 75.7564C103.407 74.9936 103.228 74.1222 103.228 73.142C103.228 72.1449 103.411 71.2649 103.778 70.5021C104.149 69.7351 104.664 69.1364 105.325 68.706C105.989 68.2713 106.765 68.054 107.651 68.054C108.342 68.054 108.964 68.1818 109.518 68.4375C110.072 68.6932 110.526 69.0511 110.879 69.5114C111.233 69.9716 111.453 70.5085 111.538 71.1222H110.029C109.914 70.6747 109.658 70.2784 109.262 69.9332C108.87 69.5838 108.342 69.4091 107.677 69.4091C107.089 69.4091 106.573 69.5625 106.13 69.8693C105.691 70.1719 105.348 70.6001 105.101 71.1541C104.858 71.7038 104.737 72.3494 104.737 73.0909C104.737 73.8494 104.856 74.5099 105.095 75.0724C105.337 75.6349 105.678 76.0717 106.117 76.3828C106.56 76.6939 107.08 76.8494 107.677 76.8494C108.069 76.8494 108.425 76.7812 108.744 76.6449C109.064 76.5085 109.335 76.3125 109.556 76.0568C109.778 75.8011 109.935 75.4943 110.029 75.1364H111.538C111.453 75.7159 111.242 76.2379 110.905 76.7024C110.573 77.1626 110.131 77.5291 109.582 77.8018C109.036 78.0703 108.401 78.2045 107.677 78.2045ZM117.859 78.2045C116.913 78.2045 116.097 77.9957 115.411 77.5781C114.729 77.1562 114.203 76.5682 113.832 75.8139C113.466 75.0554 113.283 74.1733 113.283 73.1676C113.283 72.1619 113.466 71.2756 113.832 70.5085C114.203 69.7372 114.719 69.1364 115.379 68.706C116.044 68.2713 116.82 68.054 117.706 68.054C118.217 68.054 118.722 68.1392 119.221 68.3097C119.72 68.4801 120.173 68.7571 120.582 69.1406C120.992 69.5199 121.318 70.0227 121.56 70.6491C121.803 71.2756 121.925 72.0469 121.925 72.9631V73.6023H114.357V72.2983H120.391C120.391 71.7443 120.28 71.25 120.058 70.8153C119.841 70.3807 119.53 70.0376 119.125 69.7862C118.725 69.5348 118.252 69.4091 117.706 69.4091C117.105 69.4091 116.585 69.5582 116.146 69.8565C115.712 70.1506 115.377 70.5341 115.143 71.0071C114.908 71.4801 114.791 71.9872 114.791 72.5284V73.3977C114.791 74.1392 114.919 74.7678 115.175 75.2834C115.435 75.7947 115.795 76.1847 116.255 76.4531C116.715 76.7173 117.25 76.8494 117.859 76.8494C118.256 76.8494 118.614 76.794 118.933 76.6832C119.257 76.5682 119.536 76.3977 119.771 76.1719C120.005 75.9418 120.186 75.6562 120.314 75.3153L121.771 75.7244C121.618 76.2188 121.36 76.6534 120.998 77.0284C120.636 77.3991 120.188 77.6889 119.656 77.8977C119.123 78.1023 118.524 78.2045 117.859 78.2045ZM124.22 78V68.1818H125.728V72.4517H126.725L130.254 68.1818H132.197L128.234 72.9119L132.248 78H130.305L127.083 73.858H125.728V78H124.22ZM134.859 81.6818C134.603 81.6818 134.375 81.6605 134.175 81.6179C133.975 81.5795 133.836 81.5412 133.76 81.5028L134.143 80.1733C134.51 80.267 134.834 80.3011 135.115 80.2756C135.396 80.25 135.645 80.1243 135.863 79.8984C136.084 79.6768 136.287 79.3168 136.47 78.8182L136.751 78.0511L133.12 68.1818H134.757L137.467 76.0057H137.569L140.28 68.1818H141.916L137.748 79.4318C137.561 79.9389 137.329 80.3587 137.052 80.6911C136.775 81.0277 136.453 81.277 136.086 81.4389C135.724 81.6009 135.315 81.6818 134.859 81.6818ZM150.478 72.4006V73.8068H145.058V72.4006H150.478ZM145.416 68.1818V78H143.907V68.1818H145.416ZM151.629 68.1818V78H150.12V68.1818H151.629ZM153.335 80.8125V76.5938H154.153C154.354 76.3849 154.526 76.1591 154.671 75.9162C154.816 75.6733 154.942 75.3857 155.048 75.0533C155.159 74.7166 155.253 74.3075 155.33 73.826C155.406 73.3402 155.475 72.7543 155.534 72.0682L155.867 68.1818H162.105V76.5938H163.614V80.8125H162.105V78H154.844V80.8125H153.335ZM155.867 76.5938H160.597V69.5881H157.273L157.017 72.0682C156.911 73.0952 156.778 73.9922 156.621 74.7592C156.463 75.5263 156.212 76.1378 155.867 76.5938ZM31.1082 102V92.1818H38.8298V102H37.3213V93.5881H32.6167V102H31.1082ZM45.5734 102.205C44.6871 102.205 43.9094 101.994 43.2403 101.572C42.5756 101.15 42.0557 100.56 41.6807 99.8011C41.3099 99.0426 41.1246 98.1562 41.1246 97.142C41.1246 96.1193 41.3099 95.2266 41.6807 94.4638C42.0557 93.701 42.5756 93.1087 43.2403 92.6868C43.9094 92.2649 44.6871 92.054 45.5734 92.054C46.4598 92.054 47.2354 92.2649 47.9001 92.6868C48.5692 93.1087 49.089 93.701 49.4598 94.4638C49.8348 95.2266 50.0223 96.1193 50.0223 97.142C50.0223 98.1562 49.8348 99.0426 49.4598 99.8011C49.089 100.56 48.5692 101.15 47.9001 101.572C47.2354 101.994 46.4598 102.205 45.5734 102.205ZM45.5734 100.849C46.2467 100.849 46.8007 100.677 47.2354 100.332C47.67 99.9865 47.9917 99.5327 48.2006 98.9702C48.4094 98.4077 48.5138 97.7983 48.5138 97.142C48.5138 96.4858 48.4094 95.8743 48.2006 95.3075C47.9917 94.7408 47.67 94.2827 47.2354 93.9332C46.8007 93.5838 46.2467 93.4091 45.5734 93.4091C44.9001 93.4091 44.3461 93.5838 43.9115 93.9332C43.4768 94.2827 43.1551 94.7408 42.9463 95.3075C42.7375 95.8743 42.6331 96.4858 42.6331 97.142C42.6331 97.7983 42.7375 98.4077 42.9463 98.9702C43.1551 99.5327 43.4768 99.9865 43.9115 100.332C44.3461 100.677 44.9001 100.849 45.5734 100.849ZM52.325 102V92.1818H53.8335V96.4517H54.8307L58.3591 92.1818H60.3023L56.3392 96.9119L60.3534 102H58.4102L55.1887 97.858H53.8335V102H52.325ZM64.8822 102.23C64.26 102.23 63.6954 102.113 63.1883 101.879C62.6812 101.64 62.2785 101.297 61.9802 100.849C61.6819 100.398 61.5328 99.8523 61.5328 99.2131C61.5328 98.6506 61.6436 98.1946 61.8651 97.8452C62.0867 97.4915 62.3829 97.2145 62.7536 97.0142C63.1244 96.8139 63.5335 96.6648 63.9809 96.5668C64.4326 96.4645 64.8865 96.3835 65.3424 96.3239C65.939 96.2472 66.4227 96.1896 66.7934 96.1513C67.1684 96.1087 67.4411 96.0384 67.6116 95.9403C67.7863 95.8423 67.8737 95.6719 67.8737 95.429V95.3778C67.8737 94.7472 67.7011 94.2571 67.3559 93.9077C67.015 93.5582 66.4972 93.3835 65.8026 93.3835C65.0825 93.3835 64.5178 93.5412 64.1088 93.8565C63.6997 94.1719 63.412 94.5085 63.2458 94.8665L61.814 94.3551C62.0697 93.7585 62.4106 93.294 62.8367 92.9616C63.2671 92.625 63.7359 92.3906 64.243 92.2585C64.7544 92.1222 65.2572 92.054 65.7515 92.054C66.0669 92.054 66.4291 92.0923 66.8382 92.169C67.2515 92.2415 67.6499 92.3928 68.0335 92.6229C68.4213 92.853 68.743 93.2003 68.9987 93.6648C69.2544 94.1293 69.3822 94.7514 69.3822 95.5312V102H67.8737V100.67H67.797C67.6947 100.884 67.5242 101.112 67.2856 101.354C67.047 101.597 66.7295 101.804 66.3332 101.974C65.9369 102.145 65.4532 102.23 64.8822 102.23ZM65.1123 100.875C65.7089 100.875 66.2117 100.758 66.6208 100.523C67.0342 100.289 67.3453 99.9865 67.5541 99.6158C67.7671 99.245 67.8737 98.8551 67.8737 98.446V97.0653C67.8097 97.142 67.6691 97.2124 67.4518 97.2763C67.2387 97.3359 66.9916 97.3892 66.7103 97.4361C66.4333 97.4787 66.1627 97.517 65.8985 97.5511C65.6386 97.581 65.4276 97.6065 65.2657 97.6278C64.8737 97.679 64.5072 97.7621 64.1663 97.8771C63.8296 97.9879 63.5569 98.1562 63.3481 98.3821C63.1436 98.6037 63.0413 98.9062 63.0413 99.2898C63.0413 99.8139 63.2352 100.21 63.623 100.479C64.015 100.743 64.5115 100.875 65.1123 100.875ZM71.5219 99.4943H73.1327C73.1668 99.9375 73.3671 100.274 73.7336 100.504C74.1043 100.734 74.5858 100.849 75.1782 100.849C75.7833 100.849 76.301 100.726 76.7314 100.479C77.1618 100.227 77.377 99.8224 77.377 99.2642C77.377 98.9361 77.2961 98.6506 77.1341 98.4077C76.9722 98.1605 76.7442 97.9687 76.4502 97.8324C76.1562 97.696 75.8089 97.6278 75.4083 97.6278H73.7208V96.2727H75.4083C76.0091 96.2727 76.4523 96.1364 76.7378 95.8636C77.0276 95.5909 77.1725 95.25 77.1725 94.8409C77.1725 94.402 77.017 94.0504 76.7059 93.7862C76.3948 93.5178 75.9537 93.3835 75.3827 93.3835C74.8074 93.3835 74.328 93.5135 73.9445 93.7734C73.561 94.0291 73.3586 94.3594 73.3373 94.7642H71.752C71.7691 94.2358 71.931 93.7692 72.2378 93.3643C72.5447 92.9553 72.9623 92.6357 73.4907 92.4055C74.0191 92.1712 74.6242 92.054 75.306 92.054C75.9964 92.054 76.5951 92.1754 77.1022 92.4183C77.6135 92.657 78.0077 92.983 78.2847 93.3963C78.566 93.8054 78.7066 94.2699 78.7066 94.7898C78.7066 95.3438 78.551 95.7912 78.24 96.1321C77.9289 96.473 77.539 96.7159 77.0702 96.8608V96.9631C77.441 96.9886 77.7627 97.108 78.0354 97.321C78.3124 97.5298 78.5276 97.8047 78.681 98.1456C78.8344 98.4822 78.9111 98.8551 78.9111 99.2642C78.9111 99.8608 78.7513 100.381 78.4317 100.824C78.1121 101.263 77.6732 101.604 77.115 101.847C76.5567 102.085 75.9197 102.205 75.2037 102.205C74.5091 102.205 73.887 102.092 73.3373 101.866C72.7876 101.636 72.3508 101.318 72.0269 100.913C71.7073 100.504 71.539 100.031 71.5219 99.4943ZM82.3341 95.7358H85.1466C86.2971 95.7358 87.1771 96.0277 87.7865 96.6115C88.3959 97.1953 88.7006 97.9347 88.7006 98.8295C88.7006 99.4176 88.5642 99.9524 88.2915 100.434C88.0187 100.911 87.6182 101.293 87.0898 101.578C86.5613 101.859 85.9136 102 85.1466 102H81.0301V92.1818H82.5386V100.594H85.1466C85.7432 100.594 86.2332 100.436 86.6167 100.121C87.0003 99.8054 87.192 99.4006 87.192 98.9062C87.192 98.3864 87.0003 97.9624 86.6167 97.6342C86.2332 97.3061 85.7432 97.142 85.1466 97.142H82.3341V95.7358ZM90.2602 102V92.1818H91.7687V102H90.2602ZM94.5301 102V92.1818H98.5443C99.6011 92.1818 100.441 92.4205 101.063 92.8977C101.685 93.375 101.996 94.0057 101.996 94.7898C101.996 95.3864 101.819 95.8487 101.465 96.1768C101.112 96.5007 100.658 96.7202 100.104 96.8352C100.466 96.8864 100.818 97.0142 101.159 97.2188C101.504 97.4233 101.789 97.7045 102.015 98.0625C102.241 98.4162 102.354 98.8509 102.354 99.3665C102.354 99.8693 102.226 100.319 101.97 100.715C101.715 101.112 101.348 101.425 100.871 101.655C100.394 101.885 99.8227 102 99.1579 102H94.5301ZM95.9619 100.619H99.1579C99.6778 100.619 100.085 100.496 100.379 100.249C100.673 100.001 100.82 99.6648 100.82 99.2386C100.82 98.7315 100.673 98.3331 100.379 98.0433C100.085 97.7493 99.6778 97.6023 99.1579 97.6023H95.9619V100.619ZM95.9619 96.2983H98.5443C98.9491 96.2983 99.2964 96.2429 99.5862 96.1321C99.876 96.017 100.098 95.8551 100.251 95.6463C100.409 95.4332 100.487 95.1818 100.487 94.892C100.487 94.4787 100.315 94.1548 99.9697 93.9205C99.6246 93.6818 99.1494 93.5625 98.5443 93.5625H95.9619V96.2983ZM107.527 102.23C106.905 102.23 106.34 102.113 105.833 101.879C105.326 101.64 104.923 101.297 104.625 100.849C104.326 100.398 104.177 99.8523 104.177 99.2131C104.177 98.6506 104.288 98.1946 104.51 97.8452C104.731 97.4915 105.027 97.2145 105.398 97.0142C105.769 96.8139 106.178 96.6648 106.625 96.5668C107.077 96.4645 107.531 96.3835 107.987 96.3239C108.584 96.2472 109.067 96.1896 109.438 96.1513C109.813 96.1087 110.086 96.0384 110.256 95.9403C110.431 95.8423 110.518 95.6719 110.518 95.429V95.3778C110.518 94.7472 110.346 94.2571 110 93.9077C109.66 93.5582 109.142 93.3835 108.447 93.3835C107.727 93.3835 107.162 93.5412 106.753 93.8565C106.344 94.1719 106.057 94.5085 105.89 94.8665L104.459 94.3551C104.714 93.7585 105.055 93.294 105.481 92.9616C105.912 92.625 106.38 92.3906 106.888 92.2585C107.399 92.1222 107.902 92.054 108.396 92.054C108.711 92.054 109.074 92.0923 109.483 92.169C109.896 92.2415 110.294 92.3928 110.678 92.6229C111.066 92.853 111.388 93.2003 111.643 93.6648C111.899 94.1293 112.027 94.7514 112.027 95.5312V102H110.518V100.67H110.441C110.339 100.884 110.169 101.112 109.93 101.354C109.691 101.597 109.374 101.804 108.978 101.974C108.581 102.145 108.098 102.23 107.527 102.23ZM107.757 100.875C108.353 100.875 108.856 100.758 109.265 100.523C109.679 100.289 109.99 99.9865 110.199 99.6158C110.412 99.245 110.518 98.8551 110.518 98.446V97.0653C110.454 97.142 110.314 97.2124 110.096 97.2763C109.883 97.3359 109.636 97.3892 109.355 97.4361C109.078 97.4787 108.807 97.517 108.543 97.5511C108.283 97.581 108.072 97.6065 107.91 97.6278C107.518 97.679 107.152 97.7621 106.811 97.8771C106.474 97.9879 106.201 98.1562 105.993 98.3821C105.788 98.6037 105.686 98.9062 105.686 99.2898C105.686 99.8139 105.88 100.21 106.267 100.479C106.66 100.743 107.156 100.875 107.757 100.875ZM119.485 96.4773V97.8835H114.294V96.4773H119.485ZM115.573 92.1818V102H114.064V92.1818H115.573ZM122.502 102.205C121.615 102.205 120.838 101.994 120.169 101.572C119.504 101.15 118.984 100.56 118.609 99.8011C118.238 99.0426 118.053 98.1562 118.053 97.142C118.053 96.1193 118.238 95.2266 118.609 94.4638C118.984 93.701 119.504 93.1087 120.169 92.6868C120.838 92.2649 121.615 92.054 122.502 92.054C123.388 92.054 124.164 92.2649 124.828 92.6868C125.497 93.1087 126.017 93.701 126.388 94.4638C126.763 95.2266 126.951 96.1193 126.951 97.142C126.951 98.1562 126.763 99.0426 126.388 99.8011C126.017 100.56 125.497 101.15 124.828 101.572C124.164 101.994 123.388 102.205 122.502 102.205ZM122.502 100.849C123.175 100.849 123.729 100.677 124.164 100.332C124.598 99.9865 124.92 99.5327 125.129 98.9702C125.338 98.4077 125.442 97.7983 125.442 97.142C125.442 96.4858 125.338 95.8743 125.129 95.3075C124.92 94.7408 124.598 94.2827 124.164 93.9332C123.729 93.5838 123.175 93.4091 122.502 93.4091C121.828 93.4091 121.274 93.5838 120.84 93.9332C120.405 94.2827 120.083 94.7408 119.875 95.3075C119.666 95.8743 119.561 96.4858 119.561 97.142C119.561 97.7983 119.666 98.4077 119.875 98.9702C120.083 99.5327 120.405 99.9865 120.84 100.332C121.274 100.677 121.828 100.849 122.502 100.849ZM128.122 93.5881V92.1818H136.099V93.5881H132.878V102H131.369V93.5881H128.122ZM141.778 102.205C140.858 102.205 140.065 101.987 139.401 101.553C138.736 101.118 138.225 100.519 137.867 99.7564C137.509 98.9936 137.33 98.1222 137.33 97.142C137.33 96.1449 137.513 95.2649 137.879 94.5021C138.25 93.7351 138.766 93.1364 139.426 92.706C140.091 92.2713 140.867 92.054 141.753 92.054C142.443 92.054 143.065 92.1818 143.619 92.4375C144.173 92.6932 144.627 93.0511 144.981 93.5114C145.335 93.9716 145.554 94.5085 145.639 95.1222H144.131C144.016 94.6747 143.76 94.2784 143.364 93.9332C142.972 93.5838 142.443 93.4091 141.778 93.4091C141.19 93.4091 140.675 93.5625 140.232 93.8693C139.793 94.1719 139.45 94.6001 139.203 95.1541C138.96 95.7038 138.838 96.3494 138.838 97.0909C138.838 97.8494 138.957 98.5099 139.196 99.0724C139.439 99.6349 139.78 100.072 140.219 100.383C140.662 100.694 141.182 100.849 141.778 100.849C142.171 100.849 142.526 100.781 142.846 100.645C143.166 100.509 143.436 100.312 143.658 100.057C143.879 99.8011 144.037 99.4943 144.131 99.1364H145.639C145.554 99.7159 145.343 100.238 145.006 100.702C144.674 101.163 144.233 101.529 143.683 101.802C143.138 102.07 142.503 102.205 141.778 102.205ZM153.751 102V93.5625H151.143C150.555 93.5625 150.092 93.6989 149.756 93.9716C149.419 94.2443 149.251 94.6193 149.251 95.0966C149.251 95.5653 149.402 95.9339 149.705 96.2024C150.011 96.4709 150.431 96.6051 150.964 96.6051H154.134V98.0114H150.964C150.299 98.0114 149.726 97.8942 149.244 97.6598C148.763 97.4254 148.392 97.0909 148.132 96.6562C147.872 96.2173 147.742 95.6974 147.742 95.0966C147.742 94.4915 147.879 93.9716 148.151 93.5369C148.424 93.1023 148.814 92.7678 149.321 92.5334C149.832 92.299 150.44 92.1818 151.143 92.1818H155.183V102H153.751ZM147.205 102L149.992 97.1165H151.629L148.842 102H147.205ZM163.014 102V92.1818H167.029C168.085 92.1818 168.925 92.4205 169.547 92.8977C170.169 93.375 170.48 94.0057 170.48 94.7898C170.48 95.3864 170.304 95.8487 169.95 96.1768C169.596 96.5007 169.142 96.7202 168.588 96.8352C168.951 96.8864 169.302 97.0142 169.643 97.2188C169.988 97.4233 170.274 97.7045 170.5 98.0625C170.725 98.4162 170.838 98.8509 170.838 99.3665C170.838 99.8693 170.71 100.319 170.455 100.715C170.199 101.112 169.833 101.425 169.355 101.655C168.878 101.885 168.307 102 167.642 102H163.014ZM164.446 100.619H167.642C168.162 100.619 168.569 100.496 168.863 100.249C169.157 100.001 169.304 99.6648 169.304 99.2386C169.304 98.7315 169.157 98.3331 168.863 98.0433C168.569 97.7493 168.162 97.6023 167.642 97.6023H164.446V100.619ZM164.446 96.2983H167.029C167.434 96.2983 167.781 96.2429 168.071 96.1321C168.36 96.017 168.582 95.8551 168.735 95.6463C168.893 95.4332 168.972 95.1818 168.972 94.892C168.972 94.4787 168.799 94.1548 168.454 93.9205C168.109 93.6818 167.634 93.5625 167.029 93.5625H164.446V96.2983ZM177.111 102.205C176.19 102.205 175.397 101.987 174.733 101.553C174.068 101.118 173.557 100.519 173.199 99.7564C172.841 98.9936 172.662 98.1222 172.662 97.142C172.662 96.1449 172.845 95.2649 173.211 94.5021C173.582 93.7351 174.098 93.1364 174.758 92.706C175.423 92.2713 176.199 92.054 177.085 92.054C177.775 92.054 178.397 92.1818 178.951 92.4375C179.505 92.6932 179.959 93.0511 180.313 93.5114C180.667 93.9716 180.886 94.5085 180.971 95.1222H179.463C179.348 94.6747 179.092 94.2784 178.696 93.9332C178.304 93.5838 177.775 93.4091 177.111 93.4091C176.522 93.4091 176.007 93.5625 175.564 93.8693C175.125 94.1719 174.782 94.6001 174.535 95.1541C174.292 95.7038 174.17 96.3494 174.17 97.0909C174.17 97.8494 174.29 98.5099 174.528 99.0724C174.771 99.6349 175.112 100.072 175.551 100.383C175.994 100.694 176.514 100.849 177.111 100.849C177.503 100.849 177.858 100.781 178.178 100.645C178.498 100.509 178.768 100.312 178.99 100.057C179.211 99.8011 179.369 99.4943 179.463 99.1364H180.971C180.886 99.7159 180.675 100.238 180.339 100.702C180.006 101.163 179.565 101.529 179.015 101.802C178.47 102.07 177.835 102.205 177.111 102.205ZM187.293 102.205C186.347 102.205 185.531 101.996 184.845 101.578C184.163 101.156 183.637 100.568 183.266 99.8139C182.9 99.0554 182.716 98.1733 182.716 97.1676C182.716 96.1619 182.9 95.2756 183.266 94.5085C183.637 93.7372 184.152 93.1364 184.813 92.706C185.478 92.2713 186.253 92.054 187.14 92.054C187.651 92.054 188.156 92.1392 188.655 92.3097C189.153 92.4801 189.607 92.7571 190.016 93.1406C190.425 93.5199 190.751 94.0227 190.994 94.6491C191.237 95.2756 191.358 96.0469 191.358 96.9631V97.6023H183.79V96.2983H189.824C189.824 95.7443 189.714 95.25 189.492 94.8153C189.275 94.3807 188.964 94.0376 188.559 93.7862C188.158 93.5348 187.685 93.4091 187.14 93.4091C186.539 93.4091 186.019 93.5582 185.58 93.8565C185.145 94.1506 184.811 94.5341 184.576 95.0071C184.342 95.4801 184.225 95.9872 184.225 96.5284V97.3977C184.225 98.1392 184.353 98.7678 184.608 99.2834C184.868 99.7947 185.228 100.185 185.689 100.453C186.149 100.717 186.684 100.849 187.293 100.849C187.689 100.849 188.047 100.794 188.367 100.683C188.691 100.568 188.97 100.398 189.204 100.172C189.439 99.9418 189.62 99.6562 189.748 99.3153L191.205 99.7244C191.052 100.219 190.794 100.653 190.432 101.028C190.069 101.399 189.622 101.689 189.089 101.898C188.557 102.102 187.958 102.205 187.293 102.205ZM47.7635 126V116.182H49.272V120.452H50.2692L53.7976 116.182H55.7408L51.7777 120.912L55.7919 126H53.8487L50.6271 121.858H49.272V126H47.7635ZM60.3207 126.23C59.6985 126.23 59.1339 126.113 58.6268 125.879C58.1197 125.64 57.717 125.297 57.4187 124.849C57.1204 124.398 56.9712 123.852 56.9712 123.213C56.9712 122.651 57.082 122.195 57.3036 121.845C57.5252 121.491 57.8214 121.214 58.1921 121.014C58.5629 120.814 58.9719 120.665 59.4194 120.567C59.8711 120.464 60.3249 120.384 60.7809 120.324C61.3775 120.247 61.8612 120.19 62.2319 120.151C62.6069 120.109 62.8796 120.038 63.0501 119.94C63.2248 119.842 63.3121 119.672 63.3121 119.429V119.378C63.3121 118.747 63.1396 118.257 62.7944 117.908C62.4535 117.558 61.9357 117.384 61.2411 117.384C60.521 117.384 59.9563 117.541 59.5472 117.857C59.1381 118.172 58.8505 118.509 58.6843 118.866L57.2525 118.355C57.5082 117.759 57.8491 117.294 58.2752 116.962C58.7056 116.625 59.1744 116.391 59.6815 116.259C60.1928 116.122 60.6957 116.054 61.19 116.054C61.5053 116.054 61.8675 116.092 62.2766 116.169C62.69 116.241 63.0884 116.393 63.4719 116.623C63.8597 116.853 64.1815 117.2 64.4371 117.665C64.6928 118.129 64.8207 118.751 64.8207 119.531V126H63.3121V124.67H63.2354C63.1332 124.884 62.9627 125.112 62.7241 125.354C62.4854 125.597 62.168 125.804 61.7717 125.974C61.3754 126.145 60.8917 126.23 60.3207 126.23ZM60.5508 124.875C61.1474 124.875 61.6502 124.758 62.0593 124.523C62.4727 124.289 62.7837 123.987 62.9925 123.616C63.2056 123.245 63.3121 122.855 63.3121 122.446V121.065C63.2482 121.142 63.1076 121.212 62.8903 121.276C62.6772 121.336 62.43 121.389 62.1488 121.436C61.8718 121.479 61.6012 121.517 61.337 121.551C61.0771 121.581 60.8661 121.607 60.7042 121.628C60.3121 121.679 59.9457 121.762 59.6048 121.877C59.2681 121.988 58.9954 122.156 58.7866 122.382C58.582 122.604 58.4798 122.906 58.4798 123.29C58.4798 123.814 58.6737 124.21 59.0614 124.479C59.4535 124.743 59.9499 124.875 60.5508 124.875ZM67.574 129.682V116.182H69.0314V117.741H69.2104C69.3212 117.571 69.4746 117.354 69.6706 117.089C69.8709 116.821 70.1564 116.582 70.5272 116.374C70.9022 116.161 71.4093 116.054 72.0485 116.054C72.8752 116.054 73.6039 116.261 74.2346 116.674C74.8652 117.087 75.3574 117.673 75.7111 118.432C76.0648 119.19 76.2417 120.085 76.2417 121.116C76.2417 122.156 76.0648 123.058 75.7111 123.82C75.3574 124.579 74.8674 125.167 74.2409 125.585C73.6145 125.998 72.8922 126.205 72.074 126.205C71.4434 126.205 70.9384 126.1 70.5591 125.891C70.1799 125.678 69.888 125.437 69.6834 125.169C69.4789 124.896 69.3212 124.67 69.2104 124.491H69.0826V129.682H67.574ZM69.057 121.091C69.057 121.832 69.1657 122.487 69.383 123.053C69.6003 123.616 69.9178 124.057 70.3354 124.376C70.753 124.692 71.2644 124.849 71.8695 124.849C72.5002 124.849 73.0265 124.683 73.4483 124.351C73.8745 124.014 74.1941 123.562 74.4071 122.996C74.6245 122.425 74.7331 121.79 74.7331 121.091C74.7331 120.401 74.6266 119.778 74.4135 119.224C74.2047 118.666 73.8873 118.225 73.4611 117.901C73.0392 117.573 72.5087 117.409 71.8695 117.409C71.2559 117.409 70.7402 117.565 70.3226 117.876C69.905 118.183 69.5897 118.613 69.3766 119.167C69.1635 119.717 69.057 120.358 69.057 121.091ZM77.2596 117.588V116.182H85.2369V117.588H82.0153V126H80.5067V117.588H77.2596ZM88.7413 119.736H91.5538C92.7044 119.736 93.5843 120.028 94.1937 120.612C94.8031 121.195 95.1078 121.935 95.1078 122.83C95.1078 123.418 94.9714 123.952 94.6987 124.434C94.426 124.911 94.0254 125.293 93.497 125.578C92.9686 125.859 92.3208 126 91.5538 126H87.4373V116.182H88.9458V124.594H91.5538C92.1504 124.594 92.6404 124.436 93.024 124.121C93.4075 123.805 93.5993 123.401 93.5993 122.906C93.5993 122.386 93.4075 121.962 93.024 121.634C92.6404 121.306 92.1504 121.142 91.5538 121.142H88.7413V119.736ZM96.6674 126V116.182H98.176V126H96.6674ZM102.037 126.102C101.721 126.102 101.451 125.989 101.225 125.763C100.999 125.538 100.886 125.267 100.886 124.952C100.886 124.636 100.999 124.366 101.225 124.14C101.451 123.914 101.721 123.801 102.037 123.801C102.352 123.801 102.623 123.914 102.849 124.14C103.074 124.366 103.187 124.636 103.187 124.952C103.187 125.161 103.134 125.352 103.028 125.527C102.925 125.702 102.787 125.842 102.612 125.949C102.442 126.051 102.25 126.102 102.037 126.102ZM110.445 114.315V112.909H120.264V114.315H116.147V126H114.562V114.315H110.445ZM124.059 126.23C123.437 126.23 122.872 126.113 122.365 125.879C121.858 125.64 121.455 125.297 121.157 124.849C120.859 124.398 120.71 123.852 120.71 123.213C120.71 122.651 120.82 122.195 121.042 121.845C121.263 121.491 121.56 121.214 121.93 121.014C122.301 120.814 122.71 120.665 123.158 120.567C123.609 120.464 124.063 120.384 124.519 120.324C125.116 120.247 125.599 120.19 125.97 120.151C126.345 120.109 126.618 120.038 126.788 119.94C126.963 119.842 127.05 119.672 127.05 119.429V119.378C127.05 118.747 126.878 118.257 126.533 117.908C126.192 117.558 125.674 117.384 124.979 117.384C124.259 117.384 123.695 117.541 123.286 117.857C122.876 118.172 122.589 118.509 122.423 118.866L120.991 118.355C121.246 117.759 121.587 117.294 122.013 116.962C122.444 116.625 122.913 116.391 123.42 116.259C123.931 116.122 124.434 116.054 124.928 116.054C125.244 116.054 125.606 116.092 126.015 116.169C126.428 116.241 126.827 116.393 127.21 116.623C127.598 116.853 127.92 117.2 128.175 117.665C128.431 118.129 128.559 118.751 128.559 119.531V126H127.05V124.67H126.974C126.871 124.884 126.701 125.112 126.462 125.354C126.224 125.597 125.906 125.804 125.51 125.974C125.114 126.145 124.63 126.23 124.059 126.23ZM124.289 124.875C124.886 124.875 125.388 124.758 125.798 124.523C126.211 124.289 126.522 123.987 126.731 123.616C126.944 123.245 127.05 122.855 127.05 122.446V121.065C126.987 121.142 126.846 121.212 126.629 121.276C126.415 121.336 126.168 121.389 125.887 121.436C125.61 121.479 125.339 121.517 125.075 121.551C124.815 121.581 124.604 121.607 124.442 121.628C124.05 121.679 123.684 121.762 123.343 121.877C123.006 121.988 122.734 122.156 122.525 122.382C122.32 122.604 122.218 122.906 122.218 123.29C122.218 123.814 122.412 124.21 122.8 124.479C123.192 124.743 123.688 124.875 124.289 124.875ZM132.821 123.776L137.551 116.182H139.29V126H137.781V118.406L133.077 126H131.312V116.182H132.821V123.776ZM136.554 112.909H137.96C137.96 113.599 137.721 114.164 137.244 114.603C136.767 115.042 136.119 115.261 135.301 115.261C134.496 115.261 133.854 115.042 133.377 114.603C132.904 114.164 132.667 113.599 132.667 112.909H134.074C134.074 113.241 134.165 113.533 134.349 113.785C134.536 114.036 134.854 114.162 135.301 114.162C135.748 114.162 136.068 114.036 136.26 113.785C136.456 113.533 136.554 113.241 136.554 112.909ZM147.422 123.955L150.848 116.182H152.28L148.036 126H146.808L142.641 116.182H144.047L147.422 123.955ZM143.561 116.182V126H142.053V116.182H143.561ZM151.283 126V116.182H152.791V126H151.283ZM159.669 126.205C158.723 126.205 157.907 125.996 157.221 125.578C156.539 125.156 156.013 124.568 155.642 123.814C155.276 123.055 155.092 122.173 155.092 121.168C155.092 120.162 155.276 119.276 155.642 118.509C156.013 117.737 156.528 117.136 157.189 116.706C157.854 116.271 158.629 116.054 159.516 116.054C160.027 116.054 160.532 116.139 161.031 116.31C161.529 116.48 161.983 116.757 162.392 117.141C162.801 117.52 163.127 118.023 163.37 118.649C163.613 119.276 163.734 120.047 163.734 120.963V121.602H156.166V120.298H162.2C162.2 119.744 162.089 119.25 161.868 118.815C161.651 118.381 161.339 118.038 160.935 117.786C160.534 117.535 160.061 117.409 159.516 117.409C158.915 117.409 158.395 117.558 157.956 117.857C157.521 118.151 157.187 118.534 156.952 119.007C156.718 119.48 156.601 119.987 156.601 120.528V121.398C156.601 122.139 156.729 122.768 156.984 123.283C157.244 123.795 157.604 124.185 158.065 124.453C158.525 124.717 159.06 124.849 159.669 124.849C160.065 124.849 160.423 124.794 160.743 124.683C161.067 124.568 161.346 124.398 161.58 124.172C161.815 123.942 161.996 123.656 162.124 123.315L163.581 123.724C163.428 124.219 163.17 124.653 162.808 125.028C162.445 125.399 161.998 125.689 161.465 125.898C160.933 126.102 160.334 126.205 159.669 126.205ZM166.029 129.682V116.182H167.487V117.741H167.665C167.776 117.571 167.93 117.354 168.126 117.089C168.326 116.821 168.612 116.582 168.982 116.374C169.357 116.161 169.864 116.054 170.504 116.054C171.33 116.054 172.059 116.261 172.69 116.674C173.32 117.087 173.813 117.673 174.166 118.432C174.52 119.19 174.697 120.085 174.697 121.116C174.697 122.156 174.52 123.058 174.166 123.82C173.813 124.579 173.322 125.167 172.696 125.585C172.07 125.998 171.347 126.205 170.529 126.205C169.898 126.205 169.393 126.1 169.014 125.891C168.635 125.678 168.343 125.437 168.138 125.169C167.934 124.896 167.776 124.67 167.665 124.491H167.538V129.682H166.029ZM167.512 121.091C167.512 121.832 167.621 122.487 167.838 123.053C168.055 123.616 168.373 124.057 168.79 124.376C169.208 124.692 169.719 124.849 170.325 124.849C170.955 124.849 171.482 124.683 171.903 124.351C172.33 124.014 172.649 123.562 172.862 122.996C173.08 122.425 173.188 121.79 173.188 121.091C173.188 120.401 173.082 119.778 172.869 119.224C172.66 118.666 172.342 118.225 171.916 117.901C171.494 117.573 170.964 117.409 170.325 117.409C169.711 117.409 169.195 117.565 168.778 117.876C168.36 118.183 168.045 118.613 167.832 119.167C167.619 119.717 167.512 120.358 167.512 121.091ZM25.3666 152.812V148.594H26.1847C26.385 148.385 26.5576 148.159 26.7025 147.916C26.8474 147.673 26.9731 147.386 27.0796 147.053C27.1904 146.717 27.2842 146.308 27.3609 145.826C27.4376 145.34 27.5058 144.754 27.5654 144.068L27.8978 140.182H34.1365V148.594H35.645V152.812H34.1365V150H26.8751V152.812H25.3666ZM27.8978 148.594H32.6279V141.588H29.3041L29.0484 144.068C28.9419 145.095 28.8097 145.992 28.6521 146.759C28.4944 147.526 28.243 148.138 27.8978 148.594ZM36.778 150V148.594H37.1359C37.43 148.594 37.675 148.536 37.871 148.421C38.067 148.302 38.2247 148.095 38.344 147.801C38.4676 147.503 38.5613 147.089 38.6253 146.561C38.6934 146.028 38.7425 145.351 38.7723 144.528L38.9513 140.182H45.4967V150H43.9882V141.588H40.3831L40.2297 145.091C40.1956 145.896 40.1231 146.606 40.0123 147.219C39.9058 147.829 39.7417 148.34 39.5202 148.754C39.3028 149.167 39.0131 149.478 38.6508 149.687C38.2886 149.896 37.8348 150 37.2893 150H36.778ZM49.773 147.776L54.5031 140.182H56.2417V150H54.7332V142.406L50.0287 150H48.2645V140.182H49.773V147.776ZM57.6688 141.588V140.182H65.646V141.588H62.4244V150H60.9159V141.588H57.6688ZM71.4532 150.205C70.5072 150.205 69.6911 149.996 69.0051 149.578C68.3232 149.156 67.797 148.568 67.4262 147.814C67.0597 147.055 66.8765 146.173 66.8765 145.168C66.8765 144.162 67.0597 143.276 67.4262 142.509C67.797 141.737 68.3126 141.136 68.9731 140.706C69.6379 140.271 70.4134 140.054 71.2998 140.054C71.8112 140.054 72.3161 140.139 72.8147 140.31C73.3133 140.48 73.7671 140.757 74.1762 141.141C74.5853 141.52 74.9113 142.023 75.1542 142.649C75.3971 143.276 75.5186 144.047 75.5186 144.963V145.602H67.9504V144.298H73.9845C73.9845 143.744 73.8737 143.25 73.6521 142.815C73.4347 142.381 73.1237 142.038 72.7188 141.786C72.3183 141.535 71.8453 141.409 71.2998 141.409C70.699 141.409 70.1791 141.558 69.7401 141.857C69.3055 142.151 68.971 142.534 68.7366 143.007C68.5022 143.48 68.385 143.987 68.385 144.528V145.398C68.385 146.139 68.5129 146.768 68.7686 147.283C69.0285 147.795 69.3886 148.185 69.8488 148.453C70.309 148.717 70.8438 148.849 71.4532 148.849C71.8495 148.849 72.2075 148.794 72.5271 148.683C72.8509 148.568 73.1301 148.398 73.3644 148.172C73.5988 147.942 73.7799 147.656 73.9078 147.315L75.3651 147.724C75.2117 148.219 74.9539 148.653 74.5917 149.028C74.2295 149.399 73.782 149.689 73.2494 149.898C72.7167 150.102 72.118 150.205 71.4532 150.205ZM76.944 150V148.594H77.3019C77.596 148.594 77.841 148.536 78.037 148.421C78.233 148.302 78.3907 148.095 78.51 147.801C78.6336 147.503 78.7274 147.089 78.7913 146.561C78.8595 146.028 78.9085 145.351 78.9383 144.528L79.1173 140.182H85.6627V150H84.1542V141.588H80.5491L80.3957 145.091C80.3616 145.896 80.2892 146.606 80.1784 147.219C80.0718 147.829 79.9078 148.34 79.6862 148.754C79.4688 149.167 79.1791 149.478 78.8169 149.687C78.4546 149.896 78.0008 150 77.4553 150H76.944ZM89.7345 143.736H92.547C93.6975 143.736 94.5775 144.028 95.1869 144.612C95.7963 145.195 96.1009 145.935 96.1009 146.83C96.1009 147.418 95.9646 147.952 95.6919 148.434C95.4191 148.911 95.0186 149.293 94.4901 149.578C93.9617 149.859 93.314 150 92.547 150H88.4305V140.182H89.939V148.594H92.547C93.1436 148.594 93.6336 148.436 94.0171 148.121C94.4007 147.805 94.5924 147.401 94.5924 146.906C94.5924 146.386 94.4007 145.962 94.0171 145.634C93.6336 145.306 93.1436 145.142 92.547 145.142H89.7345V143.736ZM104.968 144.401V145.807H99.5479V144.401H104.968ZM99.9058 140.182V150H98.3973V140.182H99.9058ZM106.119 140.182V150H104.61V140.182H106.119ZM112.862 150.205C111.976 150.205 111.198 149.994 110.529 149.572C109.865 149.15 109.345 148.56 108.97 147.801C108.599 147.043 108.414 146.156 108.414 145.142C108.414 144.119 108.599 143.227 108.97 142.464C109.345 141.701 109.865 141.109 110.529 140.687C111.198 140.265 111.976 140.054 112.862 140.054C113.749 140.054 114.524 140.265 115.189 140.687C115.858 141.109 116.378 141.701 116.749 142.464C117.124 143.227 117.311 144.119 117.311 145.142C117.311 146.156 117.124 147.043 116.749 147.801C116.378 148.56 115.858 149.15 115.189 149.572C114.524 149.994 113.749 150.205 112.862 150.205ZM112.862 148.849C113.536 148.849 114.09 148.677 114.524 148.332C114.959 147.987 115.281 147.533 115.49 146.97C115.698 146.408 115.803 145.798 115.803 145.142C115.803 144.486 115.698 143.874 115.49 143.308C115.281 142.741 114.959 142.283 114.524 141.933C114.09 141.584 113.536 141.409 112.862 141.409C112.189 141.409 111.635 141.584 111.201 141.933C110.766 142.283 110.444 142.741 110.235 143.308C110.027 143.874 109.922 144.486 109.922 145.142C109.922 145.798 110.027 146.408 110.235 146.97C110.444 147.533 110.766 147.987 111.201 148.332C111.635 148.677 112.189 148.849 112.862 148.849ZM123.603 150.205C122.682 150.205 121.89 149.987 121.225 149.553C120.56 149.118 120.049 148.519 119.691 147.756C119.333 146.994 119.154 146.122 119.154 145.142C119.154 144.145 119.337 143.265 119.704 142.502C120.074 141.735 120.59 141.136 121.25 140.706C121.915 140.271 122.691 140.054 123.577 140.054C124.267 140.054 124.89 140.182 125.444 140.438C125.998 140.693 126.451 141.051 126.805 141.511C127.159 141.972 127.378 142.509 127.464 143.122H125.955C125.84 142.675 125.584 142.278 125.188 141.933C124.796 141.584 124.267 141.409 123.603 141.409C123.015 141.409 122.499 141.562 122.056 141.869C121.617 142.172 121.274 142.6 121.027 143.154C120.784 143.704 120.662 144.349 120.662 145.091C120.662 145.849 120.782 146.51 121.02 147.072C121.263 147.635 121.604 148.072 122.043 148.383C122.486 148.694 123.006 148.849 123.603 148.849C123.995 148.849 124.351 148.781 124.67 148.645C124.99 148.509 125.26 148.312 125.482 148.057C125.704 147.801 125.861 147.494 125.955 147.136H127.464C127.378 147.716 127.167 148.238 126.831 148.702C126.498 149.163 126.057 149.529 125.508 149.802C124.962 150.07 124.327 150.205 123.603 150.205ZM128.895 141.588V140.182H136.873V141.588H133.651V150H132.142V141.588H128.895ZM140.582 147.776L145.312 140.182H147.05V150H145.542V142.406L140.837 150H139.073V140.182H140.582V147.776ZM156.384 147.776L161.114 140.182H162.853V150H161.345V142.406L156.64 150H154.876V140.182H156.384V147.776ZM171.676 140.182V141.588H167.125V150H165.616V140.182H171.676ZM173.878 153.682V140.182H175.335V141.741H175.514C175.625 141.571 175.778 141.354 175.974 141.089C176.175 140.821 176.46 140.582 176.831 140.374C177.206 140.161 177.713 140.054 178.352 140.054C179.179 140.054 179.908 140.261 180.538 140.674C181.169 141.087 181.661 141.673 182.015 142.432C182.369 143.19 182.545 144.085 182.545 145.116C182.545 146.156 182.369 147.058 182.015 147.82C181.661 148.579 181.171 149.167 180.545 149.585C179.918 149.998 179.196 150.205 178.378 150.205C177.747 150.205 177.242 150.1 176.863 149.891C176.484 149.678 176.192 149.437 175.987 149.169C175.783 148.896 175.625 148.67 175.514 148.491H175.386V153.682H173.878ZM175.361 145.091C175.361 145.832 175.469 146.487 175.687 147.053C175.904 147.616 176.222 148.057 176.639 148.376C177.057 148.692 177.568 148.849 178.173 148.849C178.804 148.849 179.33 148.683 179.752 148.351C180.178 148.014 180.498 147.562 180.711 146.996C180.928 146.425 181.037 145.79 181.037 145.091C181.037 144.401 180.93 143.778 180.717 143.224C180.508 142.666 180.191 142.225 179.765 141.901C179.343 141.573 178.812 141.409 178.173 141.409C177.56 141.409 177.044 141.565 176.626 141.876C176.209 142.183 175.893 142.613 175.68 143.167C175.467 143.717 175.361 144.358 175.361 145.091ZM186.15 143.736H188.963C190.114 143.736 190.994 144.028 191.603 144.612C192.212 145.195 192.517 145.935 192.517 146.83C192.517 147.418 192.381 147.952 192.108 148.434C191.835 148.911 191.435 149.293 190.906 149.578C190.378 149.859 189.73 150 188.963 150H184.847V140.182H186.355V148.594H188.963C189.56 148.594 190.05 148.436 190.433 148.121C190.817 147.805 191.008 147.401 191.008 146.906C191.008 146.386 190.817 145.962 190.433 145.634C190.05 145.306 189.56 145.142 188.963 145.142H186.15V143.736ZM194.077 150V140.182H195.585V150H194.077ZM61.5679 168.401V169.807H56.1475V168.401H61.5679ZM56.5054 164.182V174H54.9969V164.182H56.5054ZM62.7185 164.182V174H61.21V164.182H62.7185ZM68.3627 174.23C67.7405 174.23 67.1759 174.113 66.6688 173.879C66.1617 173.64 65.759 173.297 65.4607 172.849C65.1624 172.398 65.0132 171.852 65.0132 171.213C65.0132 170.651 65.124 170.195 65.3456 169.845C65.5672 169.491 65.8634 169.214 66.2341 169.014C66.6048 168.814 67.0139 168.665 67.4614 168.567C67.9131 168.464 68.3669 168.384 68.8229 168.324C69.4195 168.247 69.9031 168.19 70.2739 168.151C70.6489 168.109 70.9216 168.038 71.0921 167.94C71.2668 167.842 71.3541 167.672 71.3541 167.429V167.378C71.3541 166.747 71.1816 166.257 70.8364 165.908C70.4955 165.558 69.9777 165.384 69.2831 165.384C68.5629 165.384 67.9983 165.541 67.5892 165.857C67.1801 166.172 66.8925 166.509 66.7263 166.866L65.2945 166.355C65.5502 165.759 65.8911 165.294 66.3172 164.962C66.7476 164.625 67.2164 164.391 67.7235 164.259C68.2348 164.122 68.7377 164.054 69.232 164.054C69.5473 164.054 69.9095 164.092 70.3186 164.169C70.732 164.241 71.1304 164.393 71.5139 164.623C71.9017 164.853 72.2235 165.2 72.4791 165.665C72.7348 166.129 72.8627 166.751 72.8627 167.531V174H71.3541V172.67H71.2774C71.1752 172.884 71.0047 173.112 70.7661 173.354C70.5274 173.597 70.21 173.804 69.8137 173.974C69.4173 174.145 68.9337 174.23 68.3627 174.23ZM68.5928 172.875C69.1894 172.875 69.6922 172.758 70.1013 172.523C70.5146 172.289 70.8257 171.987 71.0345 171.616C71.2476 171.245 71.3541 170.855 71.3541 170.446V169.065C71.2902 169.142 71.1496 169.212 70.9323 169.276C70.7192 169.336 70.472 169.389 70.1908 169.436C69.9138 169.479 69.6432 169.517 69.379 169.551C69.1191 169.581 68.9081 169.607 68.7462 169.628C68.3541 169.679 67.9877 169.762 67.6468 169.877C67.3101 169.988 67.0374 170.156 66.8286 170.382C66.624 170.604 66.5218 170.906 66.5218 171.29C66.5218 171.814 66.7156 172.21 67.1034 172.479C67.4955 172.743 67.9919 172.875 68.5928 172.875ZM83.9257 165.46C83.5848 165.464 83.2417 165.552 82.8966 165.722C82.5557 165.893 82.2702 166.119 82.04 166.4C81.8142 166.677 81.7013 166.986 81.7013 167.327H80.2183C80.2183 166.901 80.3206 166.491 80.5251 166.099C80.7297 165.707 81.0045 165.358 81.3497 165.051C81.6991 164.744 82.0954 164.501 82.5386 164.322C82.9861 164.143 83.4484 164.054 83.9257 164.054C84.8206 164.054 85.5791 164.28 86.2013 164.732C86.8277 165.183 87.3028 165.78 87.6267 166.521C87.9548 167.263 88.1189 168.068 88.1189 168.938V169.295C88.1189 170.161 87.9548 170.966 87.6267 171.712C87.3028 172.453 86.8277 173.05 86.2013 173.501C85.5791 173.953 84.8206 174.179 83.9257 174.179C83.2098 174.179 82.5727 174.021 82.0145 173.706C81.4562 173.386 81.0173 172.96 80.6977 172.428C80.3781 171.895 80.2183 171.303 80.2183 170.651H81.7013C81.7013 171.021 81.8057 171.369 82.0145 171.692C82.2275 172.012 82.5024 172.272 82.839 172.472C83.18 172.668 83.5422 172.768 83.9257 172.773C84.4967 172.768 84.9825 172.589 85.3831 172.236C85.7836 171.882 86.0883 171.439 86.2971 170.906C86.5059 170.374 86.6104 169.837 86.6104 169.295V168.938C86.6104 168.384 86.5059 167.842 86.2971 167.314C86.0926 166.781 85.79 166.34 85.3895 165.991C84.9932 165.641 84.5052 165.464 83.9257 165.46ZM87.224 168.349V169.756H82.9285V168.349H87.224ZM89.1336 165.588V164.182H97.1109V165.588H93.8893V174H92.3808V165.588H89.1336ZM102.79 174.205C101.904 174.205 101.126 173.994 100.457 173.572C99.7923 173.15 99.2725 172.56 98.8975 171.801C98.5267 171.043 98.3414 170.156 98.3414 169.142C98.3414 168.119 98.5267 167.227 98.8975 166.464C99.2725 165.701 99.7923 165.109 100.457 164.687C101.126 164.265 101.904 164.054 102.79 164.054C103.677 164.054 104.452 164.265 105.117 164.687C105.786 165.109 106.306 165.701 106.677 166.464C107.052 167.227 107.239 168.119 107.239 169.142C107.239 170.156 107.052 171.043 106.677 171.801C106.306 172.56 105.786 173.15 105.117 173.572C104.452 173.994 103.677 174.205 102.79 174.205ZM102.79 172.849C103.464 172.849 104.017 172.677 104.452 172.332C104.887 171.987 105.209 171.533 105.417 170.97C105.626 170.408 105.731 169.798 105.731 169.142C105.731 168.486 105.626 167.874 105.417 167.308C105.209 166.741 104.887 166.283 104.452 165.933C104.017 165.584 103.464 165.409 102.79 165.409C102.117 165.409 101.563 165.584 101.128 165.933C100.694 166.283 100.372 166.741 100.163 167.308C99.9543 167.874 99.8499 168.486 99.8499 169.142C99.8499 169.798 99.9543 170.408 100.163 170.97C100.372 171.533 100.694 171.987 101.128 172.332C101.563 172.677 102.117 172.849 102.79 172.849ZM114.604 174V164.182H118.619C119.675 164.182 120.515 164.42 121.137 164.898C121.759 165.375 122.07 166.006 122.07 166.79C122.07 167.386 121.893 167.849 121.54 168.177C121.186 168.501 120.732 168.72 120.178 168.835C120.54 168.886 120.892 169.014 121.233 169.219C121.578 169.423 121.864 169.705 122.089 170.062C122.315 170.416 122.428 170.851 122.428 171.366C122.428 171.869 122.3 172.319 122.045 172.715C121.789 173.112 121.422 173.425 120.945 173.655C120.468 173.885 119.897 174 119.232 174H114.604ZM116.036 172.619H119.232C119.752 172.619 120.159 172.496 120.453 172.249C120.747 172.001 120.894 171.665 120.894 171.239C120.894 170.732 120.747 170.333 120.453 170.043C120.159 169.749 119.752 169.602 119.232 169.602H116.036V172.619ZM116.036 168.298H118.619C119.023 168.298 119.371 168.243 119.66 168.132C119.95 168.017 120.172 167.855 120.325 167.646C120.483 167.433 120.562 167.182 120.562 166.892C120.562 166.479 120.389 166.155 120.044 165.92C119.699 165.682 119.224 165.562 118.619 165.562H116.036V168.298ZM124.712 177.682V164.182H126.169V165.741H126.348C126.459 165.571 126.612 165.354 126.808 165.089C127.009 164.821 127.294 164.582 127.665 164.374C128.04 164.161 128.547 164.054 129.186 164.054C130.013 164.054 130.742 164.261 131.372 164.674C132.003 165.087 132.495 165.673 132.849 166.432C133.203 167.19 133.379 168.085 133.379 169.116C133.379 170.156 133.203 171.058 132.849 171.82C132.495 172.579 132.005 173.167 131.379 173.585C130.752 173.998 130.03 174.205 129.212 174.205C128.581 174.205 128.076 174.1 127.697 173.891C127.318 173.678 127.026 173.437 126.821 173.169C126.617 172.896 126.459 172.67 126.348 172.491H126.22V177.682H124.712ZM126.195 169.091C126.195 169.832 126.303 170.487 126.521 171.053C126.738 171.616 127.055 172.057 127.473 172.376C127.891 172.692 128.402 172.849 129.007 172.849C129.638 172.849 130.164 172.683 130.586 172.351C131.012 172.014 131.332 171.562 131.545 170.996C131.762 170.425 131.871 169.79 131.871 169.091C131.871 168.401 131.764 167.778 131.551 167.224C131.342 166.666 131.025 166.225 130.599 165.901C130.177 165.573 129.646 165.409 129.007 165.409C128.394 165.409 127.878 165.565 127.46 165.876C127.043 166.183 126.727 166.613 126.514 167.167C126.301 167.717 126.195 168.358 126.195 169.091ZM139.797 174.205C138.851 174.205 138.035 173.996 137.349 173.578C136.667 173.156 136.141 172.568 135.77 171.814C135.403 171.055 135.22 170.173 135.22 169.168C135.22 168.162 135.403 167.276 135.77 166.509C136.141 165.737 136.656 165.136 137.317 164.706C137.982 164.271 138.757 164.054 139.644 164.054C140.155 164.054 140.66 164.139 141.158 164.31C141.657 164.48 142.111 164.757 142.52 165.141C142.929 165.52 143.255 166.023 143.498 166.649C143.741 167.276 143.862 168.047 143.862 168.963V169.602H136.294V168.298H142.328C142.328 167.744 142.217 167.25 141.996 166.815C141.778 166.381 141.467 166.038 141.063 165.786C140.662 165.535 140.189 165.409 139.644 165.409C139.043 165.409 138.523 165.558 138.084 165.857C137.649 166.151 137.315 166.534 137.08 167.007C136.846 167.48 136.729 167.987 136.729 168.528V169.398C136.729 170.139 136.857 170.768 137.112 171.283C137.372 171.795 137.732 172.185 138.193 172.453C138.653 172.717 139.188 172.849 139.797 172.849C140.193 172.849 140.551 172.794 140.871 172.683C141.195 172.568 141.474 172.398 141.708 172.172C141.943 171.942 142.124 171.656 142.252 171.315L143.709 171.724C143.555 172.219 143.298 172.653 142.935 173.028C142.573 173.399 142.126 173.689 141.593 173.898C141.06 174.102 140.462 174.205 139.797 174.205ZM151.526 171.955L154.953 164.182H156.384L152.14 174H150.913L146.745 164.182H148.151L151.526 171.955ZM147.666 164.182V174H146.157V164.182H147.666ZM155.387 174V164.182H156.896V174H155.387ZM165.563 174V165.562H162.955C162.367 165.562 161.905 165.699 161.568 165.972C161.232 166.244 161.063 166.619 161.063 167.097C161.063 167.565 161.215 167.934 161.517 168.202C161.824 168.471 162.244 168.605 162.776 168.605H165.947V170.011H162.776C162.112 170.011 161.538 169.894 161.057 169.66C160.575 169.425 160.205 169.091 159.945 168.656C159.685 168.217 159.555 167.697 159.555 167.097C159.555 166.491 159.691 165.972 159.964 165.537C160.237 165.102 160.627 164.768 161.134 164.533C161.645 164.299 162.252 164.182 162.955 164.182H166.995V174H165.563ZM159.018 174L161.805 169.116H163.441L160.654 174H159.018ZM38.1115 198.205C37.2251 198.205 36.4474 197.994 35.7784 197.572C35.1136 197.15 34.5938 196.56 34.2188 195.801C33.848 195.043 33.6626 194.156 33.6626 193.142C33.6626 192.119 33.848 191.227 34.2188 190.464C34.5938 189.701 35.1136 189.109 35.7784 188.687C36.4474 188.265 37.2251 188.054 38.1115 188.054C38.9979 188.054 39.7734 188.265 40.4382 188.687C41.1072 189.109 41.6271 189.701 41.9979 190.464C42.3729 191.227 42.5604 192.119 42.5604 193.142C42.5604 194.156 42.3729 195.043 41.9979 195.801C41.6271 196.56 41.1072 197.15 40.4382 197.572C39.7734 197.994 38.9979 198.205 38.1115 198.205ZM38.1115 196.849C38.7848 196.849 39.3388 196.677 39.7734 196.332C40.2081 195.987 40.5298 195.533 40.7386 194.97C40.9474 194.408 41.0518 193.798 41.0518 193.142C41.0518 192.486 40.9474 191.874 40.7386 191.308C40.5298 190.741 40.2081 190.283 39.7734 189.933C39.3388 189.584 38.7848 189.409 38.1115 189.409C37.4382 189.409 36.8842 189.584 36.4496 189.933C36.0149 190.283 35.6932 190.741 35.4844 191.308C35.2756 191.874 35.1712 192.486 35.1712 193.142C35.1712 193.798 35.2756 194.408 35.4844 194.97C35.6932 195.533 36.0149 195.987 36.4496 196.332C36.8842 196.677 37.4382 196.849 38.1115 196.849ZM48.8517 198.205C47.9313 198.205 47.1387 197.987 46.4739 197.553C45.8091 197.118 45.2978 196.519 44.9398 195.756C44.5819 194.994 44.4029 194.122 44.4029 193.142C44.4029 192.145 44.5861 191.265 44.9526 190.502C45.3233 189.735 45.839 189.136 46.4995 188.706C47.1642 188.271 47.9398 188.054 48.8262 188.054C49.5165 188.054 50.1387 188.182 50.6926 188.438C51.2466 188.693 51.7005 189.051 52.0542 189.511C52.4078 189.972 52.6273 190.509 52.7125 191.122H51.204C51.089 190.675 50.8333 190.278 50.437 189.933C50.0449 189.584 49.5165 189.409 48.8517 189.409C48.2637 189.409 47.748 189.562 47.3049 189.869C46.8659 190.172 46.5229 190.6 46.2757 191.154C46.0328 191.704 45.9114 192.349 45.9114 193.091C45.9114 193.849 46.0307 194.51 46.2694 195.072C46.5123 195.635 46.8532 196.072 47.2921 196.383C47.7353 196.694 48.2551 196.849 48.8517 196.849C49.2438 196.849 49.5996 196.781 49.9192 196.645C50.2388 196.509 50.5094 196.312 50.731 196.057C50.9526 195.801 51.1103 195.494 51.204 195.136H52.7125C52.6273 195.716 52.4164 196.238 52.0797 196.702C51.7473 197.163 51.3063 197.529 50.7566 197.802C50.2111 198.07 49.5762 198.205 48.8517 198.205ZM54.1444 189.588V188.182H62.1216V189.588H58.9V198H57.3915V189.588H54.1444ZM66.7015 198.23C66.0794 198.23 65.5147 198.113 65.0076 197.879C64.5005 197.64 64.0978 197.297 63.7995 196.849C63.5012 196.398 63.3521 195.852 63.3521 195.213C63.3521 194.651 63.4629 194.195 63.6845 193.845C63.9061 193.491 64.2022 193.214 64.573 193.014C64.9437 192.814 65.3528 192.665 65.8002 192.567C66.252 192.464 66.7058 192.384 67.1618 192.324C67.7583 192.247 68.242 192.19 68.6127 192.151C68.9877 192.109 69.2605 192.038 69.4309 191.94C69.6056 191.842 69.693 191.672 69.693 191.429V191.378C69.693 190.747 69.5204 190.257 69.1752 189.908C68.8343 189.558 68.3166 189.384 67.622 189.384C66.9018 189.384 66.3372 189.541 65.9281 189.857C65.519 190.172 65.2314 190.509 65.0652 190.866L63.6333 190.355C63.889 189.759 64.2299 189.294 64.6561 188.962C65.0865 188.625 65.5552 188.391 66.0623 188.259C66.5737 188.122 67.0765 188.054 67.5708 188.054C67.8862 188.054 68.2484 188.092 68.6575 188.169C69.0708 188.241 69.4693 188.393 69.8528 188.623C70.2406 188.853 70.5623 189.2 70.818 189.665C71.0737 190.129 71.2015 190.751 71.2015 191.531V198H69.693V196.67H69.6163C69.514 196.884 69.3436 197.112 69.1049 197.354C68.8663 197.597 68.5488 197.804 68.1525 197.974C67.7562 198.145 67.2726 198.23 66.7015 198.23ZM66.9316 196.875C67.5282 196.875 68.0311 196.758 68.4402 196.523C68.8535 196.289 69.1646 195.987 69.3734 195.616C69.5865 195.245 69.693 194.855 69.693 194.446V193.065C69.6291 193.142 69.4885 193.212 69.2711 193.276C69.0581 193.336 68.8109 193.389 68.5297 193.436C68.2527 193.479 67.9821 193.517 67.7179 193.551C67.4579 193.581 67.247 193.607 67.0851 193.628C66.693 193.679 66.3265 193.762 65.9856 193.877C65.649 193.988 65.3762 194.156 65.1674 194.382C64.9629 194.604 64.8606 194.906 64.8606 195.29C64.8606 195.814 65.0545 196.21 65.4423 196.479C65.8343 196.743 66.3308 196.875 66.9316 196.875ZM80.5259 192.401V193.807H75.1055V192.401H80.5259ZM75.4634 188.182V198H73.9549V188.182H75.4634ZM81.6765 188.182V198H80.168V188.182H81.6765ZM87.3207 198.23C86.6985 198.23 86.1339 198.113 85.6268 197.879C85.1197 197.64 84.717 197.297 84.4187 196.849C84.1204 196.398 83.9712 195.852 83.9712 195.213C83.9712 194.651 84.082 194.195 84.3036 193.845C84.5252 193.491 84.8214 193.214 85.1921 193.014C85.5629 192.814 85.9719 192.665 86.4194 192.567C86.8711 192.464 87.3249 192.384 87.7809 192.324C88.3775 192.247 88.8612 192.19 89.2319 192.151C89.6069 192.109 89.8796 192.038 90.0501 191.94C90.2248 191.842 90.3121 191.672 90.3121 191.429V191.378C90.3121 190.747 90.1396 190.257 89.7944 189.908C89.4535 189.558 88.9357 189.384 88.2411 189.384C87.521 189.384 86.9563 189.541 86.5472 189.857C86.1381 190.172 85.8505 190.509 85.6843 190.866L84.2525 190.355C84.5082 189.759 84.8491 189.294 85.2752 188.962C85.7056 188.625 86.1744 188.391 86.6815 188.259C87.1928 188.122 87.6957 188.054 88.19 188.054C88.5053 188.054 88.8675 188.092 89.2766 188.169C89.69 188.241 90.0884 188.393 90.4719 188.623C90.8597 188.853 91.1815 189.2 91.4371 189.665C91.6928 190.129 91.8207 190.751 91.8207 191.531V198H90.3121V196.67H90.2354C90.1332 196.884 89.9627 197.112 89.7241 197.354C89.4854 197.597 89.168 197.804 88.7717 197.974C88.3754 198.145 87.8917 198.23 87.3207 198.23ZM87.5508 196.875C88.1474 196.875 88.6502 196.758 89.0593 196.523C89.4727 196.289 89.7837 195.987 89.9925 195.616C90.2056 195.245 90.3121 194.855 90.3121 194.446V193.065C90.2482 193.142 90.1076 193.212 89.8903 193.276C89.6772 193.336 89.43 193.389 89.1488 193.436C88.8718 193.479 88.6012 193.517 88.337 193.551C88.0771 193.581 87.8661 193.607 87.7042 193.628C87.3121 193.679 86.9457 193.762 86.6048 193.877C86.2681 193.988 85.9954 194.156 85.7866 194.382C85.582 194.604 85.4798 194.906 85.4798 195.29C85.4798 195.814 85.6737 196.21 86.0614 196.479C86.4535 196.743 86.9499 196.875 87.5508 196.875ZM94.574 198V188.182H98.5882C99.6451 188.182 100.485 188.42 101.107 188.898C101.729 189.375 102.04 190.006 102.04 190.79C102.04 191.386 101.863 191.849 101.509 192.177C101.156 192.501 100.702 192.72 100.148 192.835C100.51 192.886 100.862 193.014 101.203 193.219C101.548 193.423 101.833 193.705 102.059 194.062C102.285 194.416 102.398 194.851 102.398 195.366C102.398 195.869 102.27 196.319 102.014 196.715C101.759 197.112 101.392 197.425 100.915 197.655C100.438 197.885 99.8667 198 99.2019 198H94.574ZM96.0059 196.619H99.2019C99.7218 196.619 100.129 196.496 100.423 196.249C100.717 196.001 100.864 195.665 100.864 195.239C100.864 194.732 100.717 194.333 100.423 194.043C100.129 193.749 99.7218 193.602 99.2019 193.602H96.0059V196.619ZM96.0059 192.298H98.5882C98.9931 192.298 99.3404 192.243 99.6301 192.132C99.9199 192.017 100.142 191.855 100.295 191.646C100.453 191.433 100.531 191.182 100.531 190.892C100.531 190.479 100.359 190.155 100.014 189.92C99.6685 189.682 99.1934 189.562 98.5882 189.562H96.0059V192.298ZM103.812 198V196.594H104.17C104.464 196.594 104.709 196.536 104.905 196.421C105.101 196.302 105.259 196.095 105.378 195.801C105.502 195.503 105.596 195.089 105.659 194.561C105.728 194.028 105.777 193.351 105.806 192.528L105.985 188.182H112.531V198H111.022V189.588H107.417L107.264 193.091C107.23 193.896 107.157 194.606 107.047 195.219C106.94 195.829 106.776 196.34 106.554 196.754C106.337 197.167 106.047 197.478 105.685 197.687C105.323 197.896 104.869 198 104.324 198H103.812ZM116.807 195.776L121.537 188.182H123.276V198H121.767V190.406L117.063 198H115.299V188.182H116.807V195.776ZM126.039 198V188.182H130.053C131.11 188.182 131.949 188.42 132.572 188.898C133.194 189.375 133.505 190.006 133.505 190.79C133.505 191.386 133.328 191.849 132.974 192.177C132.621 192.501 132.167 192.72 131.613 192.835C131.975 192.886 132.327 193.014 132.667 193.219C133.013 193.423 133.298 193.705 133.524 194.062C133.75 194.416 133.863 194.851 133.863 195.366C133.863 195.869 133.735 196.319 133.479 196.715C133.224 197.112 132.857 197.425 132.38 197.655C131.903 197.885 131.331 198 130.667 198H126.039ZM127.471 196.619H130.667C131.187 196.619 131.594 196.496 131.888 196.249C132.182 196.001 132.329 195.665 132.329 195.239C132.329 194.732 132.182 194.333 131.888 194.043C131.594 193.749 131.187 193.602 130.667 193.602H127.471V196.619ZM127.471 192.298H130.053C130.458 192.298 130.805 192.243 131.095 192.132C131.385 192.017 131.606 191.855 131.76 191.646C131.917 191.433 131.996 191.182 131.996 190.892C131.996 190.479 131.824 190.155 131.479 189.92C131.133 189.682 130.658 189.562 130.053 189.562H127.471V192.298ZM139.036 198.23C138.413 198.23 137.849 198.113 137.342 197.879C136.835 197.64 136.432 197.297 136.134 196.849C135.835 196.398 135.686 195.852 135.686 195.213C135.686 194.651 135.797 194.195 136.018 193.845C136.24 193.491 136.536 193.214 136.907 193.014C137.278 192.814 137.687 192.665 138.134 192.567C138.586 192.464 139.04 192.384 139.496 192.324C140.092 192.247 140.576 192.19 140.947 192.151C141.322 192.109 141.594 192.038 141.765 191.94C141.94 191.842 142.027 191.672 142.027 191.429V191.378C142.027 190.747 141.854 190.257 141.509 189.908C141.168 189.558 140.651 189.384 139.956 189.384C139.236 189.384 138.671 189.541 138.262 189.857C137.853 190.172 137.565 190.509 137.399 190.866L135.967 190.355C136.223 189.759 136.564 189.294 136.99 188.962C137.42 188.625 137.889 188.391 138.396 188.259C138.908 188.122 139.411 188.054 139.905 188.054C140.22 188.054 140.582 188.092 140.991 188.169C141.405 188.241 141.803 188.393 142.187 188.623C142.575 188.853 142.896 189.2 143.152 189.665C143.408 190.129 143.536 190.751 143.536 191.531V198H142.027V196.67H141.95C141.848 196.884 141.678 197.112 141.439 197.354C141.2 197.597 140.883 197.804 140.487 197.974C140.09 198.145 139.607 198.23 139.036 198.23ZM139.266 196.875C139.862 196.875 140.365 196.758 140.774 196.523C141.188 196.289 141.499 195.987 141.707 195.616C141.92 195.245 142.027 194.855 142.027 194.446V193.065C141.963 193.142 141.822 193.212 141.605 193.276C141.392 193.336 141.145 193.389 140.864 193.436C140.587 193.479 140.316 193.517 140.052 193.551C139.792 193.581 139.581 193.607 139.419 193.628C139.027 193.679 138.661 193.762 138.32 193.877C137.983 193.988 137.71 194.156 137.501 194.382C137.297 194.604 137.195 194.906 137.195 195.29C137.195 195.814 137.388 196.21 137.776 196.479C138.168 196.743 138.665 196.875 139.266 196.875ZM150.405 198.205C149.459 198.205 148.643 197.996 147.957 197.578C147.275 197.156 146.749 196.568 146.378 195.814C146.012 195.055 145.829 194.173 145.829 193.168C145.829 192.162 146.012 191.276 146.378 190.509C146.749 189.737 147.265 189.136 147.925 188.706C148.59 188.271 149.366 188.054 150.252 188.054C150.763 188.054 151.268 188.139 151.767 188.31C152.265 188.48 152.719 188.757 153.128 189.141C153.537 189.52 153.863 190.023 154.106 190.649C154.349 191.276 154.471 192.047 154.471 192.963V193.602H146.903V192.298H152.937C152.937 191.744 152.826 191.25 152.604 190.815C152.387 190.381 152.076 190.038 151.671 189.786C151.27 189.535 150.797 189.409 150.252 189.409C149.651 189.409 149.131 189.558 148.692 189.857C148.258 190.151 147.923 190.534 147.689 191.007C147.454 191.48 147.337 191.987 147.337 192.528V193.398C147.337 194.139 147.465 194.768 147.721 195.283C147.981 195.795 148.341 196.185 148.801 196.453C149.261 196.717 149.796 196.849 150.405 196.849C150.802 196.849 151.16 196.794 151.479 196.683C151.803 196.568 152.082 196.398 152.317 196.172C152.551 195.942 152.732 195.656 152.86 195.315L154.317 195.724C154.164 196.219 153.906 196.653 153.544 197.028C153.182 197.399 152.734 197.689 152.202 197.898C151.669 198.102 151.07 198.205 150.405 198.205ZM155.851 189.588V188.182H163.829V189.588H160.607V198H159.099V189.588H155.851ZM169.508 198.205C168.588 198.205 167.795 197.987 167.13 197.553C166.465 197.118 165.954 196.519 165.596 195.756C165.238 194.994 165.059 194.122 165.059 193.142C165.059 192.145 165.242 191.265 165.609 190.502C165.98 189.735 166.495 189.136 167.156 188.706C167.82 188.271 168.596 188.054 169.482 188.054C170.173 188.054 170.795 188.182 171.349 188.438C171.903 188.693 172.357 189.051 172.71 189.511C173.064 189.972 173.284 190.509 173.369 191.122H171.86C171.745 190.675 171.49 190.278 171.093 189.933C170.701 189.584 170.173 189.409 169.508 189.409C168.92 189.409 168.404 189.562 167.961 189.869C167.522 190.172 167.179 190.6 166.932 191.154C166.689 191.704 166.568 192.349 166.568 193.091C166.568 193.849 166.687 194.51 166.926 195.072C167.169 195.635 167.509 196.072 167.948 196.383C168.392 196.694 168.911 196.849 169.508 196.849C169.9 196.849 170.256 196.781 170.575 196.645C170.895 196.509 171.166 196.312 171.387 196.057C171.609 195.801 171.767 195.494 171.86 195.136H173.369C173.284 195.716 173.073 196.238 172.736 196.702C172.404 197.163 171.963 197.529 171.413 197.802C170.867 198.07 170.232 198.205 169.508 198.205ZM181.48 198V189.562H178.872C178.284 189.562 177.822 189.699 177.485 189.972C177.149 190.244 176.98 190.619 176.98 191.097C176.98 191.565 177.132 191.934 177.434 192.202C177.741 192.471 178.161 192.605 178.693 192.605H181.864V194.011H178.693C178.029 194.011 177.455 193.894 176.974 193.66C176.492 193.425 176.122 193.091 175.862 192.656C175.602 192.217 175.472 191.697 175.472 191.097C175.472 190.491 175.608 189.972 175.881 189.537C176.154 189.102 176.544 188.768 177.051 188.533C177.562 188.299 178.169 188.182 178.872 188.182H182.912V198H181.48ZM174.935 198L177.722 193.116H179.358L176.571 198H174.935ZM186.781 198.102C186.466 198.102 186.195 197.989 185.969 197.763C185.743 197.538 185.63 197.267 185.63 196.952C185.63 196.636 185.743 196.366 185.969 196.14C186.195 195.914 186.466 195.801 186.781 195.801C187.096 195.801 187.367 195.914 187.593 196.14C187.819 196.366 187.931 196.636 187.931 196.952C187.931 197.161 187.878 197.352 187.772 197.527C187.669 197.702 187.531 197.842 187.356 197.949C187.186 198.051 186.994 198.102 186.781 198.102Z" fill="#004980"/>
</svg>
