<svg width="68" height="68" viewBox="0 0 68 68" fill="none" xmlns="http://www.w3.org/2000/svg">
<rect width="68" height="68" rx="34" fill="#C2F5FF"/>
<rect x="31.7298" y="9" width="24.9566" height="34.761" rx="2" transform="rotate(15 31.7298 9)" fill="url(#paint0_linear_1_6)" stroke="#E4E4E4"/>
<path fill-rule="evenodd" clip-rule="evenodd" d="M38.5303 33.4852C38.4144 33.3327 38.2973 33.1797 38.1798 33.0262C36.5409 30.8843 34.829 28.6471 35.3029 26.6581C35.8982 24.6731 37.4391 24.3711 38.6235 24.6885C39.3168 24.8742 40.0049 25.4818 40.4187 26.3021C41.1244 25.7818 41.957 25.5817 42.6503 25.7675C43.8348 26.0849 45.1366 27.1485 44.6597 29.1653C44.0535 31.1989 41.385 32.3165 38.82 33.3908C38.7346 33.4265 38.6493 33.4622 38.5642 33.4979C38.5582 33.5006 38.5521 33.5032 38.546 33.5058C38.546 33.5057 38.5459 33.5057 38.5459 33.5056C38.5458 33.5057 38.5457 33.5057 38.5457 33.5057C38.5405 33.4989 38.5354 33.492 38.5303 33.4852Z" fill="#FF4545"/>
<rect x="9.80659" y="24.6251" width="24.9566" height="34.761" rx="2" transform="rotate(-15 9.80659 24.6251)" fill="white" stroke="#E4E4E4"/>
<path fill-rule="evenodd" clip-rule="evenodd" d="M25.1217 35.4952C24.3532 34.9918 23.4536 34.8097 22.7603 34.9955C21.5758 35.3129 20.3924 36.3448 20.8694 38.3615C21.4534 40.321 24.0547 41.4026 26.5449 42.438C26.7246 42.5127 26.9037 42.5872 27.0814 42.6617C27.0881 42.6646 27.0947 42.6675 27.1014 42.6703C27.1015 42.6702 27.1015 42.6702 27.1015 42.6701C27.1016 42.6702 27.1017 42.6702 27.1018 42.6703C27.1078 42.6624 27.1137 42.6545 27.1195 42.6466C27.1734 42.5757 27.2274 42.5047 27.2815 42.4336C28.9658 40.2207 30.7179 37.9186 30.2261 35.8543C29.6307 33.8693 27.9715 33.5991 26.787 33.9165C26.0937 34.1022 25.4727 34.6918 25.1217 35.4952Z" fill="#FF4545"/>
<defs>
<linearGradient id="paint0_linear_1_6" x1="41.9798" y1="17.0218" x2="32.1754" y2="25.0435" gradientUnits="userSpaceOnUse">
<stop stop-color="white"/>
<stop offset="1" stop-color="#F0F0F0"/>
</linearGradient>
</defs>
</svg>
