<svg width="174" height="87" viewBox="0 0 174 87" fill="none" xmlns="http://www.w3.org/2000/svg">
<rect width="174" height="78" rx="12" fill="#C2F5FF"/>
<path d="M14 87L14 73L34 73L14 87Z" fill="#C2F5FF"/>
<path d="M21.9641 20.9091H23.5238V31.2131H23.6516L30.8107 20.9091H32.3448V34H30.7596V23.7216H30.6317L23.4982 34H21.9641V20.9091ZM41.372 24.1818V25.5881H36.8208V34H35.3123V24.1818H41.372ZM43.574 37.6818V24.1818H45.0314V25.7415H45.2104C45.3212 25.571 45.4746 25.3537 45.6706 25.0895C45.8709 24.821 46.1564 24.5824 46.5272 24.3736C46.9022 24.1605 47.4093 24.054 48.0485 24.054C48.8752 24.054 49.6039 24.2607 50.2346 24.674C50.8652 25.0874 51.3574 25.6733 51.7111 26.4318C52.0648 27.1903 52.2417 28.0852 52.2417 29.1165C52.2417 30.1562 52.0648 31.0575 51.7111 31.8203C51.3574 32.5788 50.8674 33.1669 50.2409 33.5845C49.6145 33.9979 48.8922 34.2045 48.074 34.2045C47.4434 34.2045 46.9384 34.1001 46.5591 33.8913C46.1799 33.6783 45.888 33.4375 45.6834 33.169C45.4789 32.8963 45.3212 32.6705 45.2104 32.4915H45.0826V37.6818H43.574ZM45.057 29.0909C45.057 29.8324 45.1657 30.4865 45.383 31.0533C45.6003 31.6158 45.9178 32.0568 46.3354 32.3764C46.753 32.6918 47.2644 32.8494 47.8695 32.8494C48.5002 32.8494 49.0265 32.6832 49.4483 32.3509C49.8745 32.0142 50.1941 31.5625 50.4071 30.9957C50.6245 30.4247 50.7331 29.7898 50.7331 29.0909C50.7331 28.4006 50.6266 27.7784 50.4135 27.2244C50.2047 26.6662 49.8873 26.2251 49.4611 25.9013C49.0392 25.5732 48.5087 25.4091 47.8695 25.4091C47.2559 25.4091 46.7402 25.5646 46.3226 25.8757C45.905 26.1825 45.5897 26.6129 45.3766 27.1669C45.1635 27.7166 45.057 28.358 45.057 29.0909ZM57.432 34.2301C56.8098 34.2301 56.2452 34.1129 55.7381 33.8786C55.231 33.6399 54.8283 33.2969 54.53 32.8494C54.2317 32.3977 54.0826 31.8523 54.0826 31.2131C54.0826 30.6506 54.1934 30.1946 54.415 29.8452C54.6365 29.4915 54.9327 29.2145 55.3034 29.0142C55.6742 28.8139 56.0833 28.6648 56.5307 28.5668C56.9824 28.4645 57.4363 28.3835 57.8922 28.3239C58.4888 28.2472 58.9725 28.1896 59.3432 28.1513C59.7182 28.1087 59.9909 28.0384 60.1614 27.9403C60.3361 27.8423 60.4235 27.6719 60.4235 27.429V27.3778C60.4235 26.7472 60.2509 26.2571 59.9057 25.9077C59.5648 25.5582 59.0471 25.3835 58.3525 25.3835C57.6323 25.3835 57.0676 25.5412 56.6586 25.8565C56.2495 26.1719 55.9618 26.5085 55.7956 26.8665L54.3638 26.3551C54.6195 25.7585 54.9604 25.294 55.3865 24.9616C55.8169 24.625 56.2857 24.3906 56.7928 24.2585C57.3042 24.1222 57.807 24.054 58.3013 24.054C58.6167 24.054 58.9789 24.0923 59.388 24.169C59.8013 24.2415 60.1998 24.3928 60.5833 24.6229C60.9711 24.853 61.2928 25.2003 61.5485 25.6648C61.8042 26.1293 61.932 26.7514 61.932 27.5312V34H60.4235V32.6705H60.3468C60.2445 32.8835 60.074 33.1115 59.8354 33.3544C59.5968 33.5973 59.2793 33.804 58.883 33.9744C58.4867 34.1449 58.003 34.2301 57.432 34.2301ZM57.6621 32.875C58.2587 32.875 58.7615 32.7578 59.1706 32.5234C59.584 32.2891 59.8951 31.9865 60.1039 31.6158C60.3169 31.245 60.4235 30.8551 60.4235 30.446V29.0653C60.3596 29.142 60.2189 29.2124 60.0016 29.2763C59.7885 29.3359 59.5414 29.3892 59.2601 29.4361C58.9831 29.4787 58.7125 29.517 58.4483 29.5511C58.1884 29.581 57.9775 29.6065 57.8155 29.6278C57.4235 29.679 57.057 29.7621 56.7161 29.8771C56.3794 29.9879 56.1067 30.1562 55.8979 30.3821C55.6934 30.6037 55.5911 30.9062 55.5911 31.2898C55.5911 31.8139 55.785 32.2102 56.1728 32.4787C56.5648 32.7429 57.0613 32.875 57.6621 32.875ZM69.7479 34V24.1818H77.4695V34H75.9609V25.5881H71.2564V34H69.7479ZM80.2244 37.6818V24.1818H81.6818V25.7415H81.8608C81.9716 25.571 82.125 25.3537 82.321 25.0895C82.5213 24.821 82.8068 24.5824 83.1776 24.3736C83.5526 24.1605 84.0597 24.054 84.6989 24.054C85.5256 24.054 86.2543 24.2607 86.8849 24.674C87.5156 25.0874 88.0078 25.6733 88.3615 26.4318C88.7152 27.1903 88.892 28.0852 88.892 29.1165C88.892 30.1562 88.7152 31.0575 88.3615 31.8203C88.0078 32.5788 87.5178 33.1669 86.8913 33.5845C86.2649 33.9979 85.5426 34.2045 84.7244 34.2045C84.0938 34.2045 83.5888 34.1001 83.2095 33.8913C82.8303 33.6783 82.5384 33.4375 82.3338 33.169C82.1293 32.8963 81.9716 32.6705 81.8608 32.4915H81.733V37.6818H80.2244ZM81.7074 29.0909C81.7074 29.8324 81.8161 30.4865 82.0334 31.0533C82.2507 31.6158 82.5682 32.0568 82.9858 32.3764C83.4034 32.6918 83.9148 32.8494 84.5199 32.8494C85.1506 32.8494 85.6768 32.6832 86.0987 32.3509C86.5249 32.0142 86.8445 31.5625 87.0575 30.9957C87.2749 30.4247 87.3835 29.7898 87.3835 29.0909C87.3835 28.4006 87.277 27.7784 87.0639 27.2244C86.8551 26.6662 86.5376 26.2251 86.1115 25.9013C85.6896 25.5732 85.1591 25.4091 84.5199 25.4091C83.9063 25.4091 83.3906 25.5646 82.973 25.8757C82.5554 26.1825 82.2401 26.6129 82.027 27.1669C81.8139 27.7166 81.7074 28.358 81.7074 29.0909ZM95.1818 34.2045C94.2955 34.2045 93.5178 33.9936 92.8487 33.5717C92.1839 33.1499 91.6641 32.5597 91.2891 31.8011C90.9183 31.0426 90.733 30.1562 90.733 29.142C90.733 28.1193 90.9183 27.2266 91.2891 26.4638C91.6641 25.701 92.1839 25.1087 92.8487 24.6868C93.5178 24.2649 94.2955 24.054 95.1818 24.054C96.0682 24.054 96.8438 24.2649 97.5085 24.6868C98.1776 25.1087 98.6974 25.701 99.0682 26.4638C99.4432 27.2266 99.6307 28.1193 99.6307 29.142C99.6307 30.1562 99.4432 31.0426 99.0682 31.8011C98.6974 32.5597 98.1776 33.1499 97.5085 33.5717C96.8438 33.9936 96.0682 34.2045 95.1818 34.2045ZM95.1818 32.8494C95.8551 32.8494 96.4091 32.6768 96.8438 32.3317C97.2784 31.9865 97.6001 31.5327 97.8089 30.9702C98.0178 30.4077 98.1222 29.7983 98.1222 29.142C98.1222 28.4858 98.0178 27.8743 97.8089 27.3075C97.6001 26.7408 97.2784 26.2827 96.8438 25.9332C96.4091 25.5838 95.8551 25.4091 95.1818 25.4091C94.5085 25.4091 93.9545 25.5838 93.5199 25.9332C93.0852 26.2827 92.7635 26.7408 92.5547 27.3075C92.3459 27.8743 92.2415 28.4858 92.2415 29.142C92.2415 29.7983 92.3459 30.4077 92.5547 30.9702C92.7635 31.5327 93.0852 31.9865 93.5199 32.3317C93.9545 32.6768 94.5085 32.8494 95.1818 32.8494ZM103.442 31.7756L108.172 24.1818H109.911V34H108.402V26.4062L103.698 34H101.933V24.1818H103.442V31.7756ZM107.175 20.9091H108.581C108.581 21.5994 108.343 22.1641 107.865 22.603C107.388 23.0419 106.74 23.2614 105.922 23.2614C105.117 23.2614 104.475 23.0419 103.998 22.603C103.525 22.1641 103.289 21.5994 103.289 20.9091H104.695C104.695 21.2415 104.786 21.5334 104.97 21.7848C105.157 22.0362 105.475 22.1619 105.922 22.1619C106.369 22.1619 106.689 22.0362 106.881 21.7848C107.077 21.5334 107.175 21.2415 107.175 20.9091ZM111.625 36.8125V32.5938H112.444C112.644 32.3849 112.816 32.1591 112.961 31.9162C113.106 31.6733 113.232 31.3857 113.338 31.0533C113.449 30.7166 113.543 30.3075 113.62 29.826C113.696 29.3402 113.765 28.7543 113.824 28.0682L114.157 24.1818H120.395V32.5938H121.904V36.8125H120.395V34H113.134V36.8125H111.625ZM114.157 32.5938H118.887V25.5881H115.563L115.307 28.0682C115.201 29.0952 115.069 29.9922 114.911 30.7592C114.753 31.5263 114.502 32.1378 114.157 32.5938ZM128.023 34.2045C127.077 34.2045 126.26 33.9957 125.574 33.5781C124.893 33.1562 124.366 32.5682 123.996 31.8139C123.629 31.0554 123.446 30.1733 123.446 29.1676C123.446 28.1619 123.629 27.2756 123.996 26.5085C124.366 25.7372 124.882 25.1364 125.542 24.706C126.207 24.2713 126.983 24.054 127.869 24.054C128.381 24.054 128.885 24.1392 129.384 24.3097C129.883 24.4801 130.336 24.7571 130.746 25.1406C131.155 25.5199 131.481 26.0227 131.724 26.6491C131.966 27.2756 132.088 28.0469 132.088 28.9631V29.6023H124.52V28.2983H130.554C130.554 27.7443 130.443 27.25 130.221 26.8153C130.004 26.3807 129.693 26.0376 129.288 25.7862C128.888 25.5348 128.415 25.4091 127.869 25.4091C127.268 25.4091 126.748 25.5582 126.309 25.8565C125.875 26.1506 125.54 26.5341 125.306 27.0071C125.072 27.4801 124.954 27.9872 124.954 28.5284V29.3977C124.954 30.1392 125.082 30.7678 125.338 31.2834C125.598 31.7947 125.958 32.1847 126.418 32.4531C126.878 32.7173 127.413 32.8494 128.023 32.8494C128.419 32.8494 128.777 32.794 129.096 32.6832C129.42 32.5682 129.699 32.3977 129.934 32.1719C130.168 31.9418 130.349 31.6562 130.477 31.3153L131.934 31.7244C131.781 32.2188 131.523 32.6534 131.161 33.0284C130.799 33.3991 130.351 33.6889 129.819 33.8977C129.286 34.1023 128.687 34.2045 128.023 34.2045ZM140.954 28.4006V29.8068H135.533V28.4006H140.954ZM135.891 24.1818V34H134.383V24.1818H135.891ZM142.104 24.1818V34H140.596V24.1818H142.104ZM147.748 34.2301C147.126 34.2301 146.562 34.1129 146.055 33.8786C145.547 33.6399 145.145 33.2969 144.846 32.8494C144.548 32.3977 144.399 31.8523 144.399 31.2131C144.399 30.6506 144.51 30.1946 144.731 29.8452C144.953 29.4915 145.249 29.2145 145.62 29.0142C145.991 28.8139 146.4 28.6648 146.847 28.5668C147.299 28.4645 147.753 28.3835 148.209 28.3239C148.805 28.2472 149.289 28.1896 149.66 28.1513C150.035 28.1087 150.307 28.0384 150.478 27.9403C150.653 27.8423 150.74 27.6719 150.74 27.429V27.3778C150.74 26.7472 150.567 26.2571 150.222 25.9077C149.881 25.5582 149.363 25.3835 148.669 25.3835C147.949 25.3835 147.384 25.5412 146.975 25.8565C146.566 26.1719 146.278 26.5085 146.112 26.8665L144.68 26.3551C144.936 25.7585 145.277 25.294 145.703 24.9616C146.133 24.625 146.602 24.3906 147.109 24.2585C147.621 24.1222 148.123 24.054 148.618 24.054C148.933 24.054 149.295 24.0923 149.704 24.169C150.118 24.2415 150.516 24.3928 150.9 24.6229C151.287 24.853 151.609 25.2003 151.865 25.6648C152.121 26.1293 152.248 26.7514 152.248 27.5312V34H150.74V32.6705H150.663C150.561 32.8835 150.39 33.1115 150.152 33.3544C149.913 33.5973 149.596 33.804 149.199 33.9744C148.803 34.1449 148.319 34.2301 147.748 34.2301ZM147.979 32.875C148.575 32.875 149.078 32.7578 149.487 32.5234C149.9 32.2891 150.211 31.9865 150.42 31.6158C150.633 31.245 150.74 30.8551 150.74 30.446V29.0653C150.676 29.142 150.535 29.2124 150.318 29.2763C150.105 29.3359 149.858 29.3892 149.577 29.4361C149.3 29.4787 149.029 29.517 148.765 29.5511C148.505 29.581 148.294 29.6065 148.132 29.6278C147.74 29.679 147.373 29.7621 147.032 29.8771C146.696 29.9879 146.423 30.1562 146.214 30.3821C146.01 30.6037 145.907 30.9062 145.907 31.2898C145.907 31.8139 146.101 32.2102 146.489 32.4787C146.881 32.7429 147.378 32.875 147.979 32.875ZM32.2985 44.5L33.0655 45.4205C32.7672 45.7102 32.4221 45.9126 32.03 46.0277C31.638 46.1428 31.1948 46.2131 30.7005 46.2386C30.2061 46.2642 29.6564 46.2898 29.0513 46.3153C28.3695 46.3409 27.8049 46.5071 27.3574 46.8139C26.91 47.1207 26.5648 47.5639 26.3219 48.1435C26.079 48.723 25.9235 49.4347 25.8553 50.2784H25.9831C26.3155 49.6648 26.7757 49.2131 27.3638 48.9233C27.9519 48.6335 28.5826 48.4886 29.2559 48.4886C30.0229 48.4886 30.7132 48.6676 31.3269 49.0256C31.9405 49.3835 32.4263 49.9141 32.7843 50.6172C33.1422 51.3203 33.3212 52.1875 33.3212 53.2188C33.3212 54.2457 33.138 55.1321 32.7715 55.8778C32.4093 56.6236 31.9 57.1989 31.2438 57.6037C30.5918 58.0043 29.8269 58.2045 28.949 58.2045C28.0712 58.2045 27.302 57.9979 26.6415 57.5845C25.981 57.1669 25.4675 56.549 25.101 55.7308C24.7346 54.9084 24.5513 53.892 24.5513 52.6818V51.6335C24.5513 49.4474 24.9221 47.7898 25.6635 46.6605C26.4093 45.5312 27.53 44.9474 29.0257 44.9091C29.5542 44.892 30.025 44.8878 30.4384 44.8963C30.8517 44.9048 31.2118 44.8857 31.5186 44.8388C31.8255 44.7919 32.0854 44.679 32.2985 44.5ZM28.949 56.8494C29.5414 56.8494 30.0506 56.7003 30.4767 56.402C30.9071 56.1037 31.2374 55.6839 31.4675 55.1428C31.6976 54.5973 31.8127 53.956 31.8127 53.2188C31.8127 52.5028 31.6955 51.8935 31.4611 51.3906C31.231 50.8878 30.9007 50.5043 30.4703 50.2401C30.04 49.9759 29.5243 49.8438 28.9235 49.8438C28.4846 49.8438 28.0904 49.9183 27.7409 50.0675C27.3915 50.2166 27.0932 50.4361 26.8461 50.7259C26.5989 51.0156 26.4071 51.3693 26.2708 51.7869C26.1387 52.2045 26.0684 52.6818 26.0598 53.2188C26.0598 54.3182 26.3176 55.1982 26.8333 55.8587C27.3489 56.5192 28.0542 56.8494 28.949 56.8494ZM39.7452 58.2045C38.7992 58.2045 37.9831 57.9957 37.2971 57.5781C36.6152 57.1562 36.089 56.5682 35.7182 55.8139C35.3517 55.0554 35.1685 54.1733 35.1685 53.1676C35.1685 52.1619 35.3517 51.2756 35.7182 50.5085C36.089 49.7372 36.6046 49.1364 37.2651 48.706C37.9299 48.2713 38.7054 48.054 39.5918 48.054C40.1032 48.054 40.6081 48.1392 41.1067 48.3097C41.6053 48.4801 42.0591 48.7571 42.4682 49.1406C42.8773 49.5199 43.2033 50.0227 43.4462 50.6491C43.6891 51.2756 43.8105 52.0469 43.8105 52.9631V53.6023H36.2424V52.2983H42.2765C42.2765 51.7443 42.1657 51.25 41.9441 50.8153C41.7267 50.3807 41.4157 50.0376 41.0108 49.7862C40.6103 49.5348 40.1373 49.4091 39.5918 49.4091C38.9909 49.4091 38.4711 49.5582 38.0321 49.8565C37.5975 50.1506 37.263 50.5341 37.0286 51.0071C36.7942 51.4801 36.677 51.9872 36.677 52.5284V53.3977C36.677 54.1392 36.8049 54.7678 37.0605 55.2834C37.3205 55.7947 37.6806 56.1847 38.1408 56.4531C38.601 56.7173 39.1358 56.8494 39.7452 56.8494C40.1415 56.8494 40.4995 56.794 40.8191 56.6832C41.1429 56.5682 41.4221 56.3977 41.6564 56.1719C41.8908 55.9418 42.0719 55.6562 42.1998 55.3153L43.6571 55.7244C43.5037 56.2188 43.2459 56.6534 42.8837 57.0284C42.5215 57.3991 42.074 57.6889 41.5414 57.8977C41.0087 58.1023 40.41 58.2045 39.7452 58.2045ZM45.4917 55.4943H47.1025C47.1365 55.9375 47.3368 56.2741 47.7033 56.5043C48.074 56.7344 48.5556 56.8494 49.1479 56.8494C49.753 56.8494 50.2708 56.7259 50.7012 56.4787C51.1316 56.2273 51.3468 55.8224 51.3468 55.2642C51.3468 54.9361 51.2658 54.6506 51.1039 54.4077C50.9419 54.1605 50.714 53.9687 50.4199 53.8324C50.1259 53.696 49.7786 53.6278 49.378 53.6278H47.6905V52.2727H49.378C49.9789 52.2727 50.4221 52.1364 50.7076 51.8636C50.9973 51.5909 51.1422 51.25 51.1422 50.8409C51.1422 50.402 50.9867 50.0504 50.6756 49.7862C50.3645 49.5178 49.9235 49.3835 49.3525 49.3835C48.7772 49.3835 48.2978 49.5135 47.9142 49.7734C47.5307 50.0291 47.3283 50.3594 47.307 50.7642H45.7218C45.7388 50.2358 45.9007 49.7692 46.2076 49.3643C46.5144 48.9553 46.932 48.6357 47.4604 48.4055C47.9888 48.1712 48.5939 48.054 49.2757 48.054C49.9661 48.054 50.5648 48.1754 51.0719 48.4183C51.5833 48.657 51.9775 48.983 52.2544 49.3963C52.5357 49.8054 52.6763 50.2699 52.6763 50.7898C52.6763 51.3438 52.5208 51.7912 52.2097 52.1321C51.8986 52.473 51.5087 52.7159 51.04 52.8608V52.9631C51.4107 52.9886 51.7324 53.108 52.0051 53.321C52.2821 53.5298 52.4973 53.8047 52.6507 54.1456C52.8042 54.4822 52.8809 54.8551 52.8809 55.2642C52.8809 55.8608 52.7211 56.3807 52.4015 56.8239C52.0819 57.2628 51.6429 57.6037 51.0847 57.8466C50.5265 58.0852 49.8894 58.2045 49.1735 58.2045C48.4789 58.2045 47.8567 58.0916 47.307 57.8658C46.7573 57.6357 46.3205 57.3182 45.9966 56.9134C45.677 56.5043 45.5087 56.0312 45.4917 55.4943ZM64.051 58.2045C63.1305 58.2045 62.3379 57.9872 61.6731 57.5526C61.0083 57.1179 60.497 56.5192 60.139 55.7564C59.7811 54.9936 59.6021 54.1222 59.6021 53.142C59.6021 52.1449 59.7853 51.2649 60.1518 50.5021C60.5225 49.7351 61.0382 49.1364 61.6987 48.706C62.3635 48.2713 63.139 48.054 64.0254 48.054C64.7157 48.054 65.3379 48.1818 65.8919 48.4375C66.4458 48.6932 66.8997 49.0511 67.2534 49.5114C67.6071 49.9716 67.8265 50.5085 67.9118 51.1222H66.4032C66.2882 50.6747 66.0325 50.2784 65.6362 49.9332C65.2441 49.5838 64.7157 49.4091 64.051 49.4091C63.4629 49.4091 62.9473 49.5625 62.5041 49.8693C62.0652 50.1719 61.7221 50.6001 61.475 51.1541C61.2321 51.7038 61.1106 52.3494 61.1106 53.0909C61.1106 53.8494 61.2299 54.5099 61.4686 55.0724C61.7115 55.6349 62.0524 56.0717 62.4913 56.3828C62.9345 56.6939 63.4544 56.8494 64.051 56.8494C64.443 56.8494 64.7988 56.7812 65.1184 56.6449C65.438 56.5085 65.7086 56.3125 65.9302 56.0568C66.1518 55.8011 66.3095 55.4943 66.4032 55.1364H67.9118C67.8265 55.7159 67.6156 56.2379 67.2789 56.7024C66.9466 57.1626 66.5055 57.5291 65.9558 57.8018C65.4103 58.0703 64.7754 58.2045 64.051 58.2045ZM71.0886 61.6818C70.8329 61.6818 70.6049 61.6605 70.4047 61.6179C70.2044 61.5795 70.0659 61.5412 69.9892 61.5028L70.3727 60.1733C70.7392 60.267 71.063 60.3011 71.3443 60.2756C71.6255 60.25 71.8748 60.1243 72.0922 59.8984C72.3137 59.6768 72.5162 59.3168 72.6994 58.8182L72.9806 58.0511L69.35 48.1818H70.9863L73.6966 56.0057H73.7988L76.5091 48.1818H78.1454L73.9778 59.4318C73.7903 59.9389 73.5581 60.3587 73.2811 60.6911C73.0041 61.0277 72.6824 61.277 72.3159 61.4389C71.9537 61.6009 71.5446 61.6818 71.0886 61.6818ZM80.1365 58V48.1818H87.8581V58H86.3496V49.5881H81.6451V58H80.1365ZM94.7296 58.2045C93.7836 58.2045 92.9675 57.9957 92.2814 57.5781C91.5996 57.1562 91.0733 56.5682 90.7026 55.8139C90.3361 55.0554 90.1529 54.1733 90.1529 53.1676C90.1529 52.1619 90.3361 51.2756 90.7026 50.5085C91.0733 49.7372 91.589 49.1364 92.2495 48.706C92.9142 48.2713 93.6898 48.054 94.5762 48.054C95.0875 48.054 95.5925 48.1392 96.0911 48.3097C96.5897 48.4801 97.0435 48.7571 97.4526 49.1406C97.8617 49.5199 98.1877 50.0227 98.4306 50.6491C98.6735 51.2756 98.7949 52.0469 98.7949 52.9631V53.6023H91.2267V52.2983H97.2608C97.2608 51.7443 97.15 51.25 96.9284 50.8153C96.7111 50.3807 96.4 50.0376 95.9952 49.7862C95.5946 49.5348 95.1216 49.4091 94.5762 49.4091C93.9753 49.4091 93.4554 49.5582 93.0165 49.8565C92.5819 50.1506 92.2473 50.5341 92.013 51.0071C91.7786 51.4801 91.6614 51.9872 91.6614 52.5284V53.3977C91.6614 54.1392 91.7892 54.7678 92.0449 55.2834C92.3049 55.7947 92.665 56.1847 93.1252 56.4531C93.5854 56.7173 94.1202 56.8494 94.7296 56.8494C95.1259 56.8494 95.4838 56.794 95.8034 56.6832C96.1273 56.5682 96.4064 56.3977 96.6408 56.1719C96.8752 55.9418 97.0563 55.6562 97.1841 55.3153L98.6415 55.7244C98.4881 56.2188 98.2303 56.6534 97.8681 57.0284C97.5059 57.3991 97.0584 57.6889 96.5257 57.8977C95.9931 58.1023 95.3944 58.2045 94.7296 58.2045ZM101.09 61.6818V48.1818H102.547V49.7415H102.726C102.837 49.571 102.99 49.3537 103.186 49.0895C103.387 48.821 103.672 48.5824 104.043 48.3736C104.418 48.1605 104.925 48.054 105.564 48.054C106.391 48.054 107.119 48.2607 107.75 48.674C108.381 49.0874 108.873 49.6733 109.227 50.4318C109.58 51.1903 109.757 52.0852 109.757 53.1165C109.757 54.1562 109.58 55.0575 109.227 55.8203C108.873 56.5788 108.383 57.1669 107.757 57.5845C107.13 57.9979 106.408 58.2045 105.59 58.2045C104.959 58.2045 104.454 58.1001 104.075 57.8913C103.695 57.6783 103.404 57.4375 103.199 57.169C102.994 56.8963 102.837 56.6705 102.726 56.4915H102.598V61.6818H101.09ZM102.573 53.0909C102.573 53.8324 102.681 54.4865 102.899 55.0533C103.116 55.6158 103.433 56.0568 103.851 56.3764C104.269 56.6918 104.78 56.8494 105.385 56.8494C106.016 56.8494 106.542 56.6832 106.964 56.3509C107.39 56.0142 107.71 55.5625 107.923 54.9957C108.14 54.4247 108.249 53.7898 108.249 53.0909C108.249 52.4006 108.142 51.7784 107.929 51.2244C107.72 50.6662 107.403 50.2251 106.977 49.9013C106.555 49.5732 106.024 49.4091 105.385 49.4091C104.771 49.4091 104.256 49.5646 103.838 49.8757C103.421 50.1825 103.105 50.6129 102.892 51.1669C102.679 51.7166 102.573 52.358 102.573 53.0909ZM117.683 51.6847V53.0909H111.956V51.6847H117.683ZM124.326 58.2045C123.406 58.2045 122.613 57.9872 121.949 57.5526C121.284 57.1179 120.772 56.5192 120.414 55.7564C120.056 54.9936 119.877 54.1222 119.877 53.142C119.877 52.1449 120.061 51.2649 120.427 50.5021C120.798 49.7351 121.314 49.1364 121.974 48.706C122.639 48.2713 123.414 48.054 124.301 48.054C124.991 48.054 125.613 48.1818 126.167 48.4375C126.721 48.6932 127.175 49.0511 127.529 49.5114C127.882 49.9716 128.102 50.5085 128.187 51.1222H126.679C126.564 50.6747 126.308 50.2784 125.912 49.9332C125.52 49.5838 124.991 49.4091 124.326 49.4091C123.738 49.4091 123.223 49.5625 122.779 49.8693C122.341 50.1719 121.998 50.6001 121.75 51.1541C121.507 51.7038 121.386 52.3494 121.386 53.0909C121.386 53.8494 121.505 54.5099 121.744 55.0724C121.987 55.6349 122.328 56.0717 122.767 56.3828C123.21 56.6939 123.73 56.8494 124.326 56.8494C124.718 56.8494 125.074 56.7812 125.394 56.6449C125.713 56.5085 125.984 56.3125 126.206 56.0568C126.427 55.8011 126.585 55.4943 126.679 55.1364H128.187C128.102 55.7159 127.891 56.2379 127.554 56.7024C127.222 57.1626 126.781 57.5291 126.231 57.8018C125.686 58.0703 125.051 58.2045 124.326 58.2045ZM131.901 55.7756L136.631 48.1818H138.37V58H136.861V50.4062L132.157 58H130.392V48.1818H131.901V55.7756ZM140.263 58V56.5938H140.621C140.915 56.5938 141.16 56.5362 141.356 56.4212C141.552 56.3018 141.71 56.0952 141.829 55.8011C141.953 55.5028 142.047 55.0895 142.111 54.5611C142.179 54.0284 142.228 53.3509 142.258 52.5284L142.437 48.1818H148.982V58H147.474V49.5881H143.868L143.715 53.0909C143.681 53.8963 143.608 54.6058 143.498 55.2195C143.391 55.8288 143.227 56.3402 143.006 56.7536C142.788 57.1669 142.498 57.478 142.136 57.6868C141.774 57.8956 141.32 58 140.775 58H140.263Z" fill="#004980"/>
</svg>
